<?xml version="1.0" encoding="UTF-8" standalone="no"?>
<svg width="200px" height="182px" viewBox="0 0 200 182" version="1.1" xmlns="http://www.w3.org/2000/svg" xmlns:xlink="http://www.w3.org/1999/xlink">
    <!-- Generator: Sketch 47.1 (45422) - http://www.bohemiancoding.com/sketch -->
    <title>Group</title>
    <desc>Created with Sketch.</desc>
    <defs></defs>
    <g id="Page-1" stroke="none" stroke-width="1" fill="none" fill-rule="evenodd">
        <g id="Group">
            <polygon id="Fill-1" fill="#F6A600" points="0 181.727273 199.974956 181.727273 199.974956 0.34965035 0 0.34965035"></polygon>
            <path d="M138.997213,65.920035 C139.321376,66.5602448 139.435309,66.7913636 139.233192,67.4140909 C137.046243,66.1032517 134.676931,65.8242308 132.10903,66.8473077 C131.733721,66.9067483 131.241658,65.841014 132.068818,65.403951 C132.771464,64.6315734 134.57746,63.7466084 136.557002,64.206049 C137.859295,64.5752797 138.604974,65.2210839 138.997213,65.920035 Z" id="Fill-2" fill="#A45900"></path>
            <path d="M111.530159,109.681643 C109.960141,110.891084 108.611993,112.223951 106.882892,113.397028 C104.692769,115.556469 103.842328,116.449825 102.9806,119.638986 C101.513228,120.002622 99.7132275,120.018706 98.6582011,119.105769 C97.8218695,117.992483 97.5375661,115.578846 98.5382716,114.386888 C100.810935,112.734441 102.047972,113.394231 106.461728,111.897727 C108.077249,111.392832 109.191887,110.417308 111.530159,109.681643" id="Fill-4" fill="#A45900"></path>
            <path d="M147.648148,137.227168 C147.418166,138.946748 149.312346,140.708636 148.495767,141.960385 C147.830511,142.43451 146.710229,140.98486 145.424162,140.80479 C146.348677,139.493601 146.505291,139.572622 147.648148,137.227168" id="Fill-6" fill="#A45900"></path>
            <path d="M117.127055,78.5723077 L115.895309,77.873007 C116.353157,76.9768531 114.530229,74.5016783 117.479436,75.2541259 C118.150335,75.5051748 117.573616,77.1205594 117.127055,78.5723077 M147.403951,120.59993 C145.219824,113.425804 142.677319,106.701678 141.533757,100.978601 C140.572557,97.5621678 140.129171,94.6667133 139.588783,91.1142657 C139.048042,87.3174126 138.428289,84.5261538 138.309065,81.6027273 C138.217707,81.7209091 138.263563,79.7901399 138.19231,79.3897902 C138.19231,79.3897902 136.864268,80.5796503 135.806067,80.7146154 C134.424056,80.8838462 132.759859,80.7177622 132.501305,79.3897902 C133.354568,78.9614685 133.735873,79.28 134.560564,79.438042 C138.127055,79.1387413 136.141517,78.1272028 139.992663,75.6432867 C140.703774,75.1132168 141.340459,74.2960839 141.431464,73.0044755 C141.431464,72.0404895 140.868501,71.0114685 140.089312,69.9065734 C138.325996,67.6733566 135.857566,66.7569231 132.163034,67.8992308 C131.477672,68.1272028 131.005714,69.1929371 130.11224,68.68 L130.700952,67.2223077 C130.624409,66.3625175 129.66321,66.388042 129.099894,66.1485315 C127.422293,65.7394406 126.440988,65.6943357 124.583845,65.8324476 C119.544339,66.1793007 117.885785,69.5677622 115.548219,72.7733566 C114.993721,73.5345455 114.04134,74.5016783 113.202187,75.1698601 C110.226878,76.9737063 107.881199,77.0782517 105.685079,77.607972 C104.567972,78.0422378 105.167972,79.7534266 105.387019,80.5796503 C105.966561,81.7209091 106.79478,83.4041259 108.205362,83.9174126 C108.603598,84.0611189 109.146455,84.1541259 109.647337,84.0723077 C109.800423,86.1782517 112.189489,86.6915385 113.47485,86.9646154 C115.864268,87.4216084 118.315767,87.5597203 120.667795,87.2611189 C121.227937,87.3625175 122.206067,86.950979 122.464974,87.7062238 C122.052981,88.4362937 121.341517,88.7324476 120.368677,88.5971329 C120.135873,91.2048252 119.680847,95.5097203 119.680847,95.5097203 C118.559859,103.11007 116.364797,106.991888 112.201129,110.741538 C110.722116,112.142587 109.965855,112.66986 107.960564,114.208671 C106.328113,115.457972 105.256155,117.287692 104.69284,118.533497 C103.447337,121.682448 103.316473,122.95972 101.183492,125.200979 C99.7958377,126.79049 99.8695591,128.519161 100.293192,129.88035 C100.600071,130.673007 101.695309,131.236294 102.741869,131.371958 C107.019118,131.94958 107.826878,128.862867 109.919647,126.768112 C112.331993,124.296084 113.315767,123.633147 115.335168,122.469161 C120.34328,119.317413 127.666737,115.054825 130.533757,109.732098 C130.64134,109.15972 131.901305,109.295035 132.052275,109.681748 C131.563034,110.594685 131.312593,111.420909 130.638871,112.142587 C127.496014,116.655874 123.943986,118.316364 121.085785,120.594685 C120.172557,121.265664 118.463563,122.147483 118.387019,122.356573 C118.387019,122.356573 120.911887,121.941538 122.615591,122.043287 C125.488254,122.212867 127.49037,122.392937 129.708713,123.762867 C130.040988,123.997133 129.748571,124.777902 129.654744,124.978252 C127.342575,124.253427 126.753862,123.698182 123.636755,123.633147 C118.551746,123.317413 115.755626,123.867063 113.190899,125.68035 C109.487901,128.519161 108.851217,133.379301 108.848042,138.935944 C106.865679,139.243287 104.652981,138.583147 102.246984,138.442587 C98.5894885,138.230699 96.6984832,140.131049 96.877672,140.311469 C97.6282892,141.055175 98.6462787,140.717413 98.6462787,140.717413 C98.7263492,141.435944 98.2483951,141.797133 98.7887831,141.971958 C101.94575,142.980699 105.227584,144.19049 107.465679,145.368811 C109.44769,146.321958 112.257566,147.147832 113.054392,146.507622 C115.38067,143.733846 117.485432,141.100629 121.714356,140.717413 C123.437813,143.959371 127.524586,144.534545 130.951041,144.895385 C136.602892,145.27021 139.037108,144.661818 142.395838,142.51007 C144.582787,140.793287 144.981023,139.414965 146.237813,137.213217 C146.863563,135.907622 147.270265,135.161119 147.981376,133.164615 C149.98067,128.335594 148.607125,124.591888 147.403951,120.59993" id="Fill-8" fill="#A45900"></path>
            <polygon id="Fill-10" fill="#FEFEFE" points="9.17746032 98.5686364 43.6226102 98.5686364 43.6226102 106.397308 30.9936861 106.397308 30.9936861 146.017238 21.7365432 146.017238 21.7365432 106.397308 9.17746032 106.397308"></polygon>
            <polygon id="Fill-12" fill="#FEFEFE" points="50.1820459 98.5686364 60.0137919 98.5686364 71.5661728 135.629126 83.0501235 98.5686364 92.7368959 98.5686364 76.1601764 146.017238 66.5435979 146.017238"></polygon>
            <path d="M165.827372,138.617238 L169.917319,138.617238 C179.174462,138.617238 181.4697,137.266538 181.4697,131.859545 C181.4697,126.525629 178.815732,124.887867 170.13284,124.887867 L165.827372,124.887867 L165.827372,138.617238 Z M165.827372,117.704301 L169.774815,117.704301 C176.804797,117.704301 179.245009,116.213392 179.245009,111.801503 C179.245009,107.321783 176.878871,105.968636 169.200564,105.968636 L165.827372,105.968636 L165.827372,117.704301 Z M156.78328,98.5686364 L169.629841,98.5686364 C175.298272,98.5686364 178.241129,98.9263287 180.752593,99.7808741 C185.41679,101.34521 188.215379,105.399406 188.215379,110.521434 C188.215379,115.784371 185.849242,118.843462 180.394215,120.549406 C187.356473,122.114091 190.79739,126.027028 190.79739,132.358497 C190.79739,138.191364 187.282399,143.099406 181.975168,144.805 C178.602681,145.803252 176.520847,146.017238 168.125432,146.017238 L156.78328,146.017238 L156.78328,98.5686364 Z" id="Fill-14" fill="#FEFEFE"></path>
            <polygon id="Fill-16" fill="#FEFEFE" points="18.160776 14.5726224 18.160776 25.117028 14.8087478 25.117028 14.8087478 14.5726224 11.4553086 14.5726224 11.4553086 11.6135315 21.5142152 11.6135315 21.5142152 14.5726224"></polygon>
            <polygon id="Fill-18" fill="#FEFEFE" points="23.4680776 25.1171329 26.8201058 25.1171329 26.8201058 11.6132867 23.4680776 11.6132867"></polygon>
            <polygon id="Fill-20" fill="#FEFEFE" points="29.9632451 25.1171329 29.9632451 11.6132867 39.2359083 11.6132867 39.2359083 14.5727273 33.3152734 14.5727273 33.3152734 16.829021 38.3741799 16.829021 38.3741799 19.7881119 33.3152734 19.7881119 33.3152734 22.158042 39.2359083 22.158042 39.2359083 25.1171329"></polygon>
            <path d="M46.8603527,14.5927972 L44.9637037,14.5927972 L44.9637037,17.3218182 L46.8603527,17.3218182 C47.7806349,17.3218182 48.3171429,16.6595804 48.3171429,15.9574825 C48.3171429,15.255035 47.7806349,14.5927972 46.8603527,14.5927972 L46.8603527,14.5927972 Z M48.5083245,25.1172727 L46.0942152,20.0913986 L44.9637037,20.0913986 L44.9637037,25.1172727 L41.6116755,25.1172727 L41.6116755,11.6134266 L47.0144974,11.6134266 C50.0416578,11.6134266 51.6691711,13.7386014 51.6691711,15.9574825 C51.6691711,17.796993 50.519612,18.9543357 49.4476543,19.4847552 L52.3982716,25.1172727 L48.5083245,25.1172727 Z" id="Fill-21" fill="#FEFEFE"></path>
            <path d="M57.992134,25.2306643 C55.9032451,25.2306643 54.1991887,24.8491958 52.82,23.4467483 L54.9649735,21.3243706 C55.6739683,22.0243706 56.9191182,22.2719231 58.0115344,22.2719231 C59.3335802,22.2719231 59.965679,21.8345105 59.965679,21.058986 C59.965679,20.7355594 59.8887831,20.4701748 59.6976014,20.2603846 C59.5258201,20.0911538 59.2376367,19.9572378 58.7963668,19.9016434 L57.149806,19.6743706 C55.9427513,19.5023427 55.0224691,19.1058392 54.4101235,18.4789161 C53.7773192,17.8345105 53.4704409,16.9250699 53.4704409,15.7677273 C53.4704409,13.3016434 55.3473369,11.4998951 58.4528042,11.4998951 C60.4065961,11.4998951 61.8810229,11.9547902 63.0496296,13.1121329 L60.9431041,15.1991958 C60.0813757,14.3453497 58.9494533,14.4005944 58.3568607,14.4005944 C57.188254,14.4005944 56.7088889,15.0652797 56.7088889,15.6540909 C56.7088889,15.8233217 56.7660317,16.0708741 56.9766138,16.2782168 C57.149806,16.4498951 57.4365785,16.6219231 57.9159436,16.6775175 L59.5625044,16.9047902 C60.7903704,17.0768182 61.6711464,17.4558392 62.2457496,18.0243706 C62.9734392,18.7268182 63.2612698,19.729965 63.2612698,20.9831119 C63.2612698,23.7320629 60.8665608,25.2306643 57.992134,25.2306643" id="Fill-22" fill="#FEFEFE"></path>
            <path d="M70.1965785,25.2306643 C68.6053968,25.2306643 67.3983422,24.7002448 66.4036332,23.7121329 C64.9655379,22.2922028 65.0230335,20.3943007 65.0230335,18.3652797 C65.0230335,16.3362587 64.9655379,14.4411538 66.4036332,13.0184266 C67.3983422,12.0331119 68.6053968,11.4998951 70.1965785,11.4998951 C72.7824691,11.4998951 74.871358,12.9226224 75.3697707,15.9016434 L71.9591887,15.9016434 C71.7471958,15.1411538 71.3270899,14.458986 70.2156261,14.458986 C69.6022222,14.458986 69.1422575,14.7065385 68.893933,15.0275175 C68.5867019,15.4264685 68.3764727,15.9016434 68.3764727,18.3652797 C68.3764727,20.8313636 68.5867019,21.3044406 68.893933,21.7037413 C69.1422575,22.0243706 69.6022222,22.2719231 70.2156261,22.2719231 C71.3270899,22.2719231 71.7471958,21.5897552 71.9591887,20.8313636 L75.3697707,20.8313636 C74.871358,23.8082867 72.7824691,25.2306643 70.1965785,25.2306643" id="Fill-23" fill="#FEFEFE"></path>
            <polygon id="Fill-24" fill="#FEFEFE" points="84.0482892 25.1171329 84.0482892 19.7678322 80.4846208 19.7678322 80.4846208 25.1171329 77.1329453 25.1171329 77.1329453 11.6132867 80.4846208 11.6132867 80.4846208 16.8111888 84.0482892 16.8111888 84.0482892 11.6132867 87.4003175 11.6132867 87.4003175 25.1171329"></polygon>
            <path d="M95.0835979,25.2306643 C92.2486772,25.2306643 89.9294533,23.3331119 89.9294533,20.3743706 L89.9294533,11.6135315 L93.2839506,11.6135315 L93.2839506,20.3009441 C93.2839506,21.551993 93.972134,22.2719231 95.0835979,22.2719231 C96.1950617,22.2719231 96.9241623,21.551993 96.9241623,20.3009441 L96.9241623,11.6135315 L100.273721,11.6135315 L100.273721,20.3743706 C100.273721,23.3331119 97.9181658,25.2306643 95.0835979,25.2306643" id="Fill-25" fill="#FEFEFE"></path>
            <polygon id="Fill-26" fill="#FEFEFE" points="108.706208 14.5726224 108.706208 25.117028 105.35418 25.117028 105.35418 14.5726224 102.002152 14.5726224 102.002152 11.6135315 112.058236 11.6135315 112.058236 14.5726224"></polygon>
            <polygon id="Fill-27" fill="#FEFEFE" points="113.590053 25.1171329 113.590053 22.5374126 118.821093 14.5727273 113.819683 14.5727273 113.819683 11.6132867 122.843668 11.6132867 122.843668 14.1937063 117.597813 22.158042 122.843668 22.158042 122.843668 25.1171329"></polygon>
            <polygon id="Fill-28" fill="#FEFEFE" points="130.565044 25.1171329 128.956226 25.1171329 124.472981 11.6132867 126.619012 11.6132867 129.761869 21.4381119 132.90261 11.6132867 135.087443 11.6132867"></polygon>
            <polygon id="Fill-29" fill="#FEFEFE" points="136.963139 25.1171329 136.963139 11.6132867 145.681658 11.6132867 145.681658 13.4531469 139.032981 13.4531469 139.032981 17.3975524 144.704938 17.3975524 144.704938 19.2195804 139.032981 19.2195804 139.032981 23.2776224 145.681658 23.2776224 145.681658 25.1171329"></polygon>
            <path d="M153.652557,13.4531818 L150.585891,13.4531818 L150.585891,17.6832517 L153.652557,17.6832517 C155.028924,17.6832517 155.969665,16.9049301 155.969665,15.5783566 C155.969665,14.2517832 155.028924,13.4531818 153.652557,13.4531818 L153.652557,13.4531818 Z M156.043739,25.1171678 L153.173192,19.4266084 L150.585891,19.4266084 L150.585891,25.1171678 L148.515697,25.1171678 L148.515697,11.6133217 L153.805644,11.6133217 C156.390476,11.6133217 158.03739,13.2636713 158.03739,15.5605245 C158.03739,17.4937413 156.849383,18.726958 155.319929,19.1437413 L158.460317,25.1171678 L156.043739,25.1171678 Z" id="Fill-30" fill="#FEFEFE"></path>
            <polygon id="Fill-31" fill="#FEFEFE" points="161.065115 25.1171329 161.065115 11.6132867 169.783986 11.6132867 169.783986 13.4531469 163.135309 13.4531469 163.135309 17.3975524 168.804444 17.3975524 168.804444 19.2195804 163.135309 19.2195804 163.135309 23.2776224 169.783986 23.2776224 169.783986 25.1171329"></polygon>
            <polygon id="Fill-32" fill="#FEFEFE" points="172.618342 25.1171329 174.688183 25.1171329 174.688183 11.6132867 172.618342 11.6132867"></polygon>
            <polygon id="Fill-33" fill="#FEFEFE" points="186.623175 25.1171329 180.319118 15.6160839 180.319118 25.1171329 178.249277 25.1171329 178.249277 11.6132867 180.148748 11.6132867 186.449982 21.0968531 186.449982 11.6132867 188.519471 11.6132867 188.519471 25.1171329"></polygon>
            <polygon id="Fill-34" fill="#FEFEFE" points="14.7311111 35.4090909 14.7311111 39.5227273 20.402716 39.5227273 20.402716 41.3622378 14.7311111 41.3622378 14.7311111 47.0706294 12.662328 47.0706294 12.662328 33.5695804 21.3790829 33.5695804 21.3790829 35.4090909"></polygon>
            <path d="M29.7516755,32.1671329 L31.5146384,32.1671329 L31.5146384,30.1178322 L29.7516755,30.1178322 L29.7516755,32.1671329 Z M25.6144621,32.1671329 L27.3760141,32.1671329 L27.3760141,30.1178322 L25.6144621,30.1178322 L25.6144621,32.1671329 Z M28.5460317,47.1842657 C25.7675485,47.1842657 23.6592593,45.3066434 23.6592593,42.5195804 L23.6592593,33.5695804 L25.7291005,33.5695804 L25.7291005,42.4262238 C25.7291005,44.2251748 26.8405644,45.3447552 28.5460317,45.3447552 C30.2500882,45.3447552 31.3805996,44.2251748 31.3805996,42.4262238 L31.3805996,33.5695804 L33.4507937,33.5695804 L33.4507937,42.5195804 C33.4507937,45.3066434 31.3234568,47.1842657 28.5460317,47.1842657 L28.5460317,47.1842657 Z" id="Fill-35" fill="#FEFEFE"></path>
            <path d="M41.9365432,35.4090909 L38.8712875,35.4090909 L38.8712875,39.6363636 L41.9365432,39.6363636 C43.3167901,39.6363636 44.2550617,38.858042 44.2550617,37.5318182 C44.2550617,36.2052448 43.3167901,35.4090909 41.9365432,35.4090909 L41.9365432,35.4090909 Z M44.3326631,47.0706294 L41.4585891,41.3800699 L38.8712875,41.3800699 L38.8712875,47.0706294 L36.8025044,47.0706294 L36.8025044,33.5695804 L42.0910406,33.5695804 C44.6769312,33.5695804 46.3238448,35.2195804 46.3238448,37.513986 C46.3238448,39.4468531 45.1372487,40.6797203 43.6039153,41.0968531 L46.7457143,47.0706294 L44.3326631,47.0706294 Z" id="Fill-36" fill="#FEFEFE"></path>
            <path d="M59.2759788,41.1172028 L56.0181305,41.1172028 L56.0181305,45.2308392 L59.2759788,45.2308392 C60.7123104,45.2308392 61.5176014,44.3591608 61.5176014,43.1640559 C61.5176014,41.968951 60.7123104,41.1172028 59.2759788,41.1172028 M59.0847972,35.4091608 L56.0181305,35.4091608 L56.0181305,39.2776923 L59.0847972,39.2776923 C60.4064903,39.2776923 61.3063139,38.5955245 61.3063139,37.342028 C61.3063139,36.0913287 60.4064903,35.4091608 59.0847972,35.4091608 M59.4671605,47.0706993 L53.9493474,47.0706993 L53.9493474,33.5696503 L59.2565785,33.5696503 C61.7853263,33.5696503 63.3765079,34.992028 63.3765079,37.2665035 C63.3765079,38.726993 62.4562257,39.7703497 61.536649,40.1294406 C62.5899118,40.549021 63.5867372,41.5518182 63.5867372,43.2602098 C63.5867372,45.7441259 61.8812698,47.0706993 59.4671605,47.0706993" id="Fill-37" fill="#FEFEFE"></path>
            <polygon id="Fill-38" fill="#FEFEFE" points="66.6516755 47.0706643 66.6516755 33.5696154 75.3698413 33.5696154 75.3698413 35.4091259 68.7215168 35.4091259 68.7215168 39.3535315 74.3920635 39.3535315 74.3920635 41.1727622 68.7215168 41.1727622 68.7215168 45.2308042 75.3698413 45.2308042 75.3698413 47.0706643"></polygon>
            <path d="M83.3397178,35.4090909 L80.2744621,35.4090909 L80.2744621,39.6363636 L83.3397178,39.6363636 C84.7189065,39.6363636 85.6571781,38.858042 85.6571781,37.5318182 C85.6571781,36.2052448 84.7189065,35.4090909 83.3397178,35.4090909 L83.3397178,35.4090909 Z M85.7337213,47.0706294 L82.8607055,41.3800699 L80.2744621,41.3800699 L80.2744621,47.0706294 L78.2060317,47.0706294 L78.2060317,33.5695804 L83.4928042,33.5695804 C86.0801058,33.5695804 87.7266667,35.2195804 87.7266667,37.513986 C87.7266667,39.4468531 86.5386596,40.6797203 85.0067372,41.0968531 L88.1499471,47.0706294 L85.7337213,47.0706294 Z" id="Fill-39" fill="#FEFEFE"></path>
            <polygon id="Fill-40" fill="#FEFEFE" points="90.7550265 47.0706643 90.7550265 33.5696154 92.8252205 33.5696154 92.8252205 45.2308042 99.3941799 45.2308042 99.3941799 47.0706643"></polygon>
            <polygon id="Fill-41" fill="#FEFEFE" points="101.752381 47.0706294 103.821869 47.0706294 103.821869 33.5695804 101.752381 33.5695804"></polygon>
            <polygon id="Fill-42" fill="#FEFEFE" points="115.75746 47.0706643 109.453404 37.5696154 109.453404 47.0706643 107.38321 47.0706643 107.38321 33.5696154 109.282328 33.5696154 115.583915 43.0503846 115.583915 33.5696154 117.653757 33.5696154 117.653757 47.0706643"></polygon>
            <path d="M178.873369,171.277098 L180.198942,171.277098 L180.198942,161.010664 L186.168254,171.277098 L187.694885,171.277098 L187.694885,158.907867 L186.387654,158.907867 L186.387654,169.201923 L180.390829,158.907867 L178.873369,158.907867 L178.873369,171.277098 Z M171.907584,171.277098 L173.342857,171.277098 L173.342857,158.907867 L171.907584,158.907867 L171.907584,171.277098 Z M160.691005,171.277098 L167.474074,171.277098 L167.474074,170.072203 L162.13545,170.072203 L162.13545,158.907867 L160.691005,158.907867 L160.691005,171.277098 Z M149.236684,160.113112 L150.086772,160.113112 C150.726631,160.113112 151.153439,160.119406 151.366843,160.131294 C152.000353,160.161713 152.500176,160.252622 152.865961,160.402972 C153.652205,160.729196 154.04515,161.391084 154.04515,162.387587 C154.04515,163.801224 153.274074,164.583741 151.732275,164.734441 C151.403175,164.76486 150.86067,164.780245 150.105115,164.780245 L149.236684,164.780245 L149.236684,160.113112 Z M147.838095,171.277098 L149.236684,171.277098 L149.236684,165.98514 L151.403175,165.98514 L154.556966,171.277098 L156.248325,171.277098 L152.957319,165.767657 C154.669841,165.163811 155.525926,164.043182 155.525926,162.405769 C155.525926,161.439336 155.227513,160.650874 154.630335,160.040734 C154.063492,159.45472 153.23739,159.10472 152.152734,158.989336 C151.671252,158.93514 150.967549,158.907867 150.04127,158.907867 L147.838095,158.907867 L147.838095,171.277098 Z M137.508289,160.113112 L142.975309,160.113112 L142.975309,158.907867 L136.1097,158.907867 L136.1097,171.277098 L143.084656,171.277098 L143.084656,170.072203 L137.508289,170.072203 L137.508289,165.468706 L142.572487,165.468706 L142.572487,164.263462 L137.508289,164.263462 L137.508289,160.113112 Z M124.865608,165.40507 L126.118166,165.40507 C126.800353,165.40507 127.312522,165.423601 127.653616,165.459615 C128.391182,165.538287 128.945679,165.767657 129.31746,166.148077 C129.71358,166.552972 129.911817,167.087937 129.911817,167.751923 C129.911817,169.117308 129.232099,169.875699 127.873016,170.026748 C127.428219,170.075 126.843034,170.099476 126.118166,170.099476 L124.865608,170.099476 L124.865608,165.40507 Z M124.865608,160.085839 L125.971781,160.085839 C126.708995,160.085839 127.242328,160.110315 127.571429,160.158566 C128.095591,160.230944 128.497707,160.402972 128.778131,160.67535 C129.143915,161.025699 129.326631,161.496678 129.326631,162.088986 C129.326631,162.922203 129.015873,163.508217 128.394356,163.846329 C127.918871,164.106469 127.135802,164.236189 126.044797,164.236189 L124.865608,164.236189 L124.865608,160.085839 Z M123.485362,171.277098 L125.661023,171.277098 C126.691005,171.277098 127.458554,171.255769 127.964727,171.213462 C129.006702,171.128846 129.802116,170.845629 130.350617,170.362063 C131.04515,169.740035 131.392593,168.897028 131.392593,167.833741 C131.392593,166.18479 130.487478,165.136538 128.677601,164.689336 C130.054674,164.266608 130.743563,163.366259 130.743563,161.989336 C130.743563,161.361014 130.600353,160.816958 130.313933,160.357867 C129.96649,159.81451 129.466667,159.430594 128.814815,159.206818 C128.223633,159.007517 127.202822,158.907867 125.752381,158.907867 L123.485362,158.907867 L123.485362,171.277098 Z M92.2215168,158.175 L92.2215168,171.277098 L94.5054674,171.277098 L94.5054674,161.051923 L97.2948854,171.277098 L99.9160494,171.277098 L102.742857,161.051923 L102.742857,171.277098 L105.02716,171.277098 L105.02716,158.175 L101.526279,158.175 L98.6243386,168.586538 L95.7597884,158.175 L92.2215168,158.175 Z M84.8828924,171.277098 L87.4289242,171.277098 L87.4289242,158.175 L84.8828924,158.175 L84.8828924,171.277098 Z M74.8670194,163.408217 L74.8670194,160.328147 L80.6518519,160.328147 L80.6518519,158.175 L72.3206349,158.175 L72.3206349,171.277098 L80.8578483,171.277098 L80.8578483,169.12465 L74.8670194,169.12465 L74.8670194,165.561014 L80.1276896,165.561014 L80.1276896,163.408217 L74.8670194,163.408217 Z M59.7396825,163.408217 L59.7396825,158.175 L57.1936508,158.175 L57.1936508,171.277098 L59.7396825,171.277098 L59.7396825,165.486888 L64.9820106,165.486888 L64.9820106,171.277098 L67.5280423,171.277098 L67.5280423,158.175 L64.9820106,158.175 L64.9820106,163.408217 L59.7396825,163.408217 Z M46.0169312,164.113811 L46.0169312,160.328147 L46.7661376,160.328147 C47.3897707,160.328147 47.8800705,160.337238 48.2356261,160.355769 C48.5911817,160.373951 48.912522,160.44528 49.1996473,160.569056 C49.8737213,160.878846 50.2109347,161.410315 50.2109347,162.16486 C50.2109347,162.37535 50.1887125,162.570804 50.1453263,162.749476 C50.1012346,162.929196 50.0236332,163.105769 49.9111111,163.278497 C49.7862434,163.464161 49.6366843,163.612413 49.4617284,163.723951 C49.2871252,163.83549 49.1029982,163.918706 48.9097002,163.974301 C48.7160494,164.029895 48.5132275,164.067657 48.3012346,164.086189 C48.0888889,164.104371 47.8828924,164.113811 47.6832451,164.113811 L46.0169312,164.113811 Z M43.4708995,158.175 L43.4708995,171.277098 L46.0169312,171.277098 L46.0169312,166.266608 L47.8518519,166.266608 L50.5477954,171.277098 L53.5058201,171.277098 L50.4730159,165.839336 C50.6349206,165.76521 50.7537919,165.709615 50.8285714,165.672902 C50.903351,165.63514 50.9784832,165.586538 51.0532628,165.524301 C51.3527337,165.338636 51.5989418,165.140734 51.7925926,164.930594 C51.9862434,164.719755 52.1453263,164.512413 52.270194,164.308566 C52.394709,164.104371 52.4853616,163.912762 52.5414462,163.733392 C52.5978836,163.554021 52.6444444,163.396678 52.6821869,163.259965 C52.7442681,163.025 52.7816578,162.811713 52.7943563,162.619755 C52.8067019,162.427797 52.8130511,162.288986 52.8130511,162.202273 C52.8130511,162.004371 52.7880071,161.738636 52.7382716,161.404371 C52.6881834,161.070455 52.5760141,160.723951 52.4010582,160.36486 C52.2261023,160.006469 51.9707231,159.657168 51.6335097,159.316259 C51.296649,158.976049 50.8345679,158.707517 50.2483245,158.508916 C50.0236332,158.43479 49.8017637,158.373252 49.5834215,158.323601 C49.3650794,158.274301 49.1248677,158.240385 48.8627866,158.221503 C48.6007055,158.202972 48.3012346,158.190734 47.9640212,158.18479 C47.6271605,158.178147 47.2338624,158.175 46.7848325,158.175 L43.4708995,158.175 Z M33.4924162,163.408217 L33.4924162,160.328147 L39.2776014,160.328147 L39.2776014,158.175 L30.9463845,158.175 L30.9463845,171.277098 L39.4835979,171.277098 L39.4835979,169.12465 L33.4924162,169.12465 L33.4924162,165.561014 L38.7534392,165.561014 L38.7534392,163.408217 L33.4924162,163.408217 Z M23.626455,171.277098 L26.1724868,171.277098 L26.1724868,158.175 L23.626455,158.175 L23.626455,171.277098 Z M10.8772487,158.175 L10.8772487,160.328147 L14.3594356,160.328147 L14.3594356,171.277098 L16.9054674,171.277098 L16.9054674,160.328147 L20.4067019,160.328147 L20.4067019,158.175 L10.8772487,158.175 Z" id="Fill-43" fill="#FEFEFE"></path>
        </g>
    </g>
</svg>