<?xml version="1.0" encoding="UTF-8"?>
<svg id="Layer_1" data-name="Layer 1" xmlns="http://www.w3.org/2000/svg" xmlns:xlink="http://www.w3.org/1999/xlink" viewBox="0 0 1700 1700">
  <defs>
    <style>
      .cls-1 {
        fill: url(#Unbenannter_Verlauf_3);
      }

      .cls-1, .cls-2 {
        stroke-width: 0px;
      }

      .cls-2 {
        fill: #6eb0d9;
      }
    </style>
    <radialGradient id="Unbenannter_Verlauf_3" data-name="Unbenannter Verlauf 3" cx="850" cy="850" fx="850" fy="850" r="850.41" gradientTransform="translate(850 -351.51) rotate(45)" gradientUnits="userSpaceOnUse">
      <stop offset="0" stop-color="#fff"/>
      <stop offset=".97" stop-color="#fff"/>
      <stop offset="1" stop-color="#a7abab"/>
    </radialGradient>
  </defs>
  <circle class="cls-1" cx="850" cy="850" r="850" transform="translate(-352.08 850) rotate(-45)"/>
  <g>
    <path class="cls-2" d="M457.13,1043.46c-123.46,0-239.47-64.92-241.6-223.5h138.36c2.13,68.12,48.96,98.98,103.24,98.98,58.54,0,102.17-36.19,102.17-105.37,0-62.79-38.31-104.3-106.43-104.3h-20.22v-120.26h20.22c68.12,0,95.79-41.51,95.79-94.72,0-63.86-42.57-96.85-92.59-96.85s-90.47,34.06-93.66,91.53h-138.36c4.26-136.23,104.3-216.05,232.02-216.05,134.1,0,230.95,88.34,230.95,217.12,0,81.95-37.25,128.78-87.27,155.39,55.34,28.73,97.91,79.82,97.91,172.41,0,151.13-110.69,225.63-240.53,225.63Z"/>
    <path class="cls-2" d="M345.81,1122.67v143.48c0,47.43-35.42,72.04-75.34,72.04-23.11,0-39.02-6-54.93-21.91l27.62-27.32c7.2,7.21,13.51,12.01,27.32,12.01,20.71,0,33.62-12.01,33.62-36.62v-141.68h41.72ZM566.44,1122.67l78.05,213.72h-43.83l-12.61-37.82h-75.64l-12.91,37.82h-43.83l78.05-213.72h32.72ZM550.23,1186.01l-26.42,77.44h52.53l-26.12-77.44ZM916.66,1122.67v213.72h-41.72v-89.45h-72.64v89.45h-41.72v-213.72h41.72v87.05h72.64v-87.05h41.72ZM1056.41,1122.67h83.75c43.83,0,69.34,29.72,69.34,65.44,0,30.02-18.31,48.93-39.02,56.13l47.73,92.15h-48.33l-41.72-85.25h-30.02v85.25h-41.72v-213.72ZM1137.76,1159.89h-39.63v56.14h39.63c18.31,0,30.02-11.41,30.02-28.22s-11.71-27.92-30.02-27.92ZM1483.65,1122.67v37.22h-99.06v50.13h84.65v37.22h-84.65v51.93h99.06v37.22h-140.78v-213.72h140.78Z"/>
    <path class="cls-2" d="M1099.2,272.91c-212.78,0-385.28,172.49-385.28,385.27s172.49,385.27,385.28,385.27,385.28-172.49,385.28-385.27-172.49-385.27-385.28-385.27ZM1099.2,905.07c-136.35,0-246.88-110.53-246.88-246.88s110.53-246.88,246.88-246.88,246.88,110.53,246.88,246.88-110.53,246.88-246.88,246.88Z"/>
  </g>
</svg>