<?xml version="1.0" encoding="UTF-8"?>
<svg id="Layer_1" data-name="Layer 1" xmlns="http://www.w3.org/2000/svg" viewBox="0 0 196.82 53.2">
  <defs>
    <style>
      .cls-1 {
        fill: #fdfae1;
      }

      .cls-2 {
        fill: #ea717a;
      }

      .cls-3 {
        fill: #88d0cc;
      }
    </style>
  </defs>
  <rect class="cls-2" width="196.82" height="53.2"/>
  <g>
    <path class="cls-1" d="m71.98,9.21c2.75-.26,4.67-.29,5.77-.1,1.1.19,1.78.68,2.04,1.49.29.81.29,1.68.06,2.62s-.84,1.65-1.85,2.11c1.2.62,1.81,1.46,1.85,2.59.03,1.13-.19,1.98-.65,2.62-.45.62-1.04.94-1.65.97-2.17.32-4.37.45-6.58.36l-.39.06c-.26.03-.42-.06-.49-.26l-.1-.29,1.04-11.57.94-.62Zm1.17,7.35l-.29,2.85c2.62.03,4.05-.26,4.28-.81.23-.58.19-1.1-.1-1.59-.32-.49-1.59-.65-3.89-.45Zm.58-5.05l-.29,2.98c2.3.06,3.6-.23,3.82-.87s.23-1.23,0-1.72c-.26-.49-1.43-.62-3.53-.39Z"/>
    <path class="cls-1" d="m90.09,9.01c.26.87.23,1.68-.13,2.43l-5.41.16-.16,2.11,4.44-.1c.42.81.39,1.56-.1,2.3l-4.54.19-.23,2.56,5.54-.16c.45.97.39,1.88-.19,2.75l-7.74.29c-.23-.03-.39-.23-.45-.52l.75-11.34c.06-.23.19-.36.39-.45l7.84-.23Z"/>
    <path class="cls-1" d="m93.4,9.21c2.75-.26,4.67-.29,5.77-.1s1.78.68,2.07,1.52.29,1.94.03,3.34-1.3,2.33-3.08,2.75l2.92,3.79c-.55,1.1-1.46,1.43-2.72,1.04l-2.92-4.21-.97.1-.39,3.92c-1.13.39-2.04.32-2.72-.26l1.04-11.34.97-.55Zm1.72,2.3l-.36,3.43c2.27-.16,3.56-.55,3.82-1.2.29-.65.29-1.23.03-1.78-.23-.55-1.39-.71-3.5-.45Z"/>
    <path class="cls-1" d="m106.1,9.11l-.58,9.59,4.96-.13c.45.97.39,1.91-.19,2.75l-7.23.26c-.23-.03-.39-.23-.45-.52l.68-11.79c.68-.32,1.59-.39,2.82-.16Z"/>
    <path class="cls-1" d="m113.22,9.11c.84-.19,1.75-.16,2.72.13l-.97,12.18c-1.13.32-2.07.29-2.85-.13l1.1-12.18Z"/>
    <path class="cls-1" d="m119.96,9.21l3.95,6.67.39-6.51c.84-.42,1.65-.42,2.46.03l-.71,11.79c-.55.52-1.33.58-2.3.19l-3.69-6.77-.45,6.77c-1.2.29-2.07.23-2.69-.19l.71-11.63c.36-.55,1.13-.65,2.33-.36Z"/>
  </g>
  <g>
    <path class="cls-3" d="m148.13,35.71c-32.82,10.17-66.68,10.17-99.5,0,2.92-2.2,4.34-3.34,7.06-5.64-1.07-3.43-1.56-5.15-2.46-8.59,29.81,9.2,60.46,9.2,90.26,0-.87,2.92-1.85,5.83-2.92,8.72,2.46,1.91,4.96,3.76,7.55,5.51Z"/>
    <g>
      <path class="cls-1" d="m136.57,34.51c.32,1.33-1.36.52-3.11.91s-2.92,1.88-3.21.52.71-3.47,2.43-3.86c1.72-.36,3.56,1.1,3.89,2.43Z"/>
      <path class="cls-1" d="m131.64,30.33c.39.58.32,1.26-.13,1.56-.45.26-1.13,0-1.49-.58s-.29-1.26.16-1.56c.42-.26,1.1,0,1.46.58Z"/>
      <path class="cls-1" d="m129.96,32.21c.42.39.49.94.19,1.23-.32.29-.91.19-1.3-.19-.42-.39-.49-.94-.19-1.23.29-.29.87-.19,1.3.19Z"/>
      <path class="cls-1" d="m132.87,30.07c-.1.68.26,1.3.81,1.33.52.03,1.04-.49,1.1-1.17.06-.68-.29-1.3-.81-1.33-.55-.06-1.04.45-1.1,1.17Z"/>
      <path class="cls-1" d="m135.21,31.01c-.19.52-.03,1.07.36,1.17.39.13.91-.19,1.1-.75.19-.52.03-1.07-.39-1.17-.36-.13-.84.19-1.07.75Z"/>
    </g>
    <g>
      <path class="cls-1" d="m124.13,37.1c.23,1.36-1.39.42-3.18.68-1.75.26-3.05,1.62-3.21.26s1-3.4,2.72-3.66c1.72-.23,3.43,1.39,3.66,2.72Z"/>
      <path class="cls-1" d="m119.56,32.57c.32.62.19,1.3-.26,1.52-.49.23-1.13-.06-1.46-.68s-.19-1.3.29-1.52c.45-.26,1.1.06,1.43.68Z"/>
      <path class="cls-1" d="m117.71,34.28c.39.42.42.97.1,1.23s-.91.13-1.26-.29c-.39-.42-.42-.97-.06-1.23.29-.26.84-.13,1.23.29Z"/>
      <path class="cls-1" d="m120.79,32.37c-.13.68.16,1.3.68,1.39s1.07-.39,1.2-1.07c.13-.68-.19-1.3-.71-1.39s-1.04.39-1.17,1.07Z"/>
      <path class="cls-1" d="m123.06,33.51c-.23.52-.13,1.04.26,1.2.39.16.91-.13,1.13-.65s.1-1.04-.29-1.2c-.36-.16-.87.13-1.1.65Z"/>
    </g>
    <g>
      <path class="cls-1" d="m78.64,38.11c-.16,1.36-1.46,0-3.21-.26s-3.4.68-3.18-.68c.23-1.36,1.94-2.95,3.66-2.72,1.72.26,2.88,2.3,2.72,3.66Z"/>
      <path class="cls-1" d="m75.56,32.44c.13.68-.16,1.3-.68,1.39s-1.07-.39-1.2-1.07.19-1.3.71-1.39c.52-.1,1.04.39,1.17,1.07Z"/>
      <path class="cls-1" d="m73.29,33.54c.23.52.13,1.04-.26,1.2s-.91-.13-1.13-.65-.1-1.04.29-1.2c.36-.13.87.13,1.1.65Z"/>
      <path class="cls-1" d="m76.79,32.6c-.32.62-.23,1.3.26,1.52s1.13-.06,1.46-.68c.32-.62.19-1.3-.26-1.52-.49-.23-1.13.06-1.46.68Z"/>
      <path class="cls-1" d="m78.64,34.32c-.39.42-.42.97-.1,1.23s.91.13,1.3-.29c.39-.42.42-.97.1-1.23-.36-.23-.91-.1-1.3.29Z"/>
    </g>
    <g>
      <path class="cls-1" d="m66.62,36c-.29,1.36-1.46-.13-3.21-.52s-3.43.42-3.11-.91,2.17-2.82,3.89-2.4c1.72.36,2.72,2.46,2.43,3.82Z"/>
      <path class="cls-1" d="m64.03,30.1c.1.68-.26,1.3-.81,1.33-.52.03-1.04-.49-1.1-1.17s.29-1.3.81-1.33c.52-.06,1,.49,1.1,1.17Z"/>
      <path class="cls-1" d="m61.66,31.04c.19.52.03,1.07-.36,1.17-.39.13-.91-.19-1.1-.75-.19-.52-.03-1.07.36-1.17.42-.13.91.19,1.1.75Z"/>
      <path class="cls-1" d="m65.23,30.36c-.39.58-.32,1.26.13,1.56.45.26,1.13,0,1.49-.58s.29-1.26-.16-1.56c-.42-.26-1.07,0-1.46.58Z"/>
      <path class="cls-1" d="m66.94,32.24c-.42.39-.49.94-.19,1.23.32.29.91.19,1.3-.19.42-.39.49-.94.16-1.23-.29-.29-.84-.19-1.26.19Z"/>
    </g>
    <g>
      <path class="cls-1" d="m84.02,36.16c0,.13-.03.26-.03.39,0,.1-.03.19-.03.29,0,.26-.03.52-.06.75-.03.16-.03.36-.06.55-.03.32-.06.65-.13.97-.03.13-.03.23-.03.36-.03.13-.1.29-.19.42-.03.03-.03.1-.06.1,0,0-.06,0-.1.03,0,0-.03.06-.06.1-.06.13-.13.13-.23.03h-.03s-.06.06-.06.1c-.23-.06-.45-.13-.71-.1-.03-.03-.06-.06-.06-.1-.03,0-.03.03-.03.03-.13.06-.23.06-.29-.03s-.13-.23-.16-.36c-.03-.16-.03-.32.03-.49.03-.1.03-.19.03-.29.03-.23.1-.42.13-.62.03-.13,0-.32.06-.49.1-.26.06-.58.1-.84.03-.19.1-.39.1-.58,0-.1.03-.23.06-.32.03-.13.06-.29.1-.45,0,0,.03-.03.03-.06-.06-.26.06-.45.06-.71.03-.23.1-.49.13-.71.03-.19.06-.42.1-.62.03-.23.06-.45.13-.68.03-.13.06-.29.1-.39.03-.06.06-.13.1-.19.03-.06.06-.1.16-.13,0,.03.03.1.03.13h.03s.03-.06.03-.1c.03-.06.06-.06.13-.06v.16c.06-.03.1-.06.16-.1.1.03.19.06.29.13.03,0,.06.03.1,0s.1-.03.13,0c.03,0,.1.03.13.03.19,0,.39.03.62.06.16.03.32.1.45.13.39.1.71.32.94.65.13.19.23.39.29.62.03.19.03.42,0,.62-.06.26-.19.49-.36.71-.16.19-.42.36-.65.45-.36.13-.71.16-1.07.16h-.1c-.23.1-.23.29-.23.45Zm-1.52-.68v.19h.03c0-.06,0-.13.03-.19h-.06Zm.06-.52v.16h.03c.03-.06.03-.1.03-.16h-.06Zm.32-2.4c-.03.19-.1.39-.13.58-.03.19-.03.39-.06.58-.03.19-.03.39-.06.58-.03.29-.06.49,0,.58.1-.78.19-1.56.29-2.3t-.03-.03Zm.19.42c0-.06.03-.1.03-.16h0c-.03.06-.03.1-.06.16t.03,0Zm-.19,1.94c.06-.62.13-1.23.19-1.85h-.03c-.06.62-.13,1.23-.19,1.85h.03Zm-.06.16v.06-.06h0Zm.29-2.4v-.13h0v.13h0Zm.42,1.33s-.03.06-.03.1v.1c-.03.29-.03.62-.06.91v.13s.03-.03.03-.06c.03-.36.03-.68.03-1,0,0-.03-.03-.03-.06.06-.03.13-.03.06-.1Zm.03-.23c0-.06,0-.13.03-.19-.03.06-.03.13-.03.19Zm-.13,2.01c0-.1.03-.19.03-.29l-.03.03c0,.1-.03.16-.03.26,0,0,.03,0,.03,0Zm.45-3.05v.16c0,.06.03.16.03.23h.03v-.16s-.03-.03-.06-.06c.06-.03.06-.1,0-.16Zm-.06,2.53h.1c.03-.26.06-1.68,0-1.91,0,.62-.06,1.26-.1,1.91Zm1.07-.23c.16-.06.29-.16.39-.29.06-.13.16-.29.23-.45s.1-.39.1-.55c-.03-.36-.19-.68-.45-.94-.06-.06-.16-.13-.26-.19-.16-.06-.39-.1-.58-.13h-.23c.06.91.06,1.81.06,2.75.26,0,.52-.06.75-.19Zm-1.04.55c-.06-.03-.1,0-.1.06,0,.13,0,.26-.03.39-.03.1,0,.23-.03.29,0,.03.03.06.03.1.1-.26.13-.55.13-.84Zm-.16,1.3v.06-.06h0Zm.03-.23v.1h.03s0-.06-.03-.1c.03,0,0,0,0,0Zm2.01-2.69v-.1s-.03.03-.03.03c0,0,0,.03.03.06t0,0Zm.32.1v.13-.13Zm.16-.13c0,.13-.03.23-.03.36.06-.13.06-.23.03-.36Z"/>
      <path class="cls-1" d="m88.39,32.5h0c.03-.06.06-.1.1-.1s.03.03.03.1t.03.03c.06-.13.16-.1.23-.06s.13.06.23.03c.03,0,.06,0,.1.03.16.06.29.16.36.36.16.45.29.87.36,1.33.03.06.03.13.06.23.06.29.13.58.19.87.03.26.06.52.1.75.03.23.1.49.1.71.03.26.03.52.06.78.03.29.03.62.06.87.03.13.03.32.03.45,0,.16.03.32.03.49,0,.23,0,.49-.03.75,0,.1-.03.19-.06.32-.03.06-.06.1-.13.13-.06.03-.1.1-.13.16-.1.13-.13.13-.32.06,0,.03-.06.06-.1.1-.16-.03-.32-.06-.49-.1v.03s-.03-.06-.06-.1c-.03.06-.1.13-.13.1-.03-.03-.06-.1-.1-.16-.06.06-.1.13-.13.19-.06-.03-.1-.03-.13-.06-.13-.13-.19-.26-.19-.42s.03-.36,0-.52c0-.13,0-.29-.03-.42v-.65c0-.32,0-.65-.03-.97,0-.13-.03-.29-.03-.45v-.32c0-.13,0-.32-.03-.45,0-.03,0-.06-.03-.1-.29,0-.81-.03-.87.03-.06.06-.1.49-.16.71-.06.26-.16.58-.23.87-.1.39-.19.84-.29,1.26-.03.19-.1.36-.16.52-.03.13-.16.16-.29.1-.03,0-.1-.03-.16-.03v-.16c.1-.45.16-.87.26-1.3.16-.65.32-1.33.49-2.01.03-.06.03-.1,0-.16s-.03-.1.06-.16c.03-.03.06-.06.06-.13.19-.75.49-1.49.71-2.2.1-.32.23-.65.36-.97.03-.1.06-.19.06-.29s.06-.16.16-.16c.06.06.06.1.1.1Zm-.87,3.53c.26,0,.52-.03.78-.03-.03-.65-.16-1.26-.16-1.91-.19.65-.42,1.26-.62,1.94Zm.84-2.62v.1c.03.19.03.39.03.58.03.32.06.65.06.97.03.26.06.55.06.81,0,.03.03.06.03.06,0,.03.03.03.06.06v-.06c-.03-.84-.13-1.65-.23-2.46v-.06h-.03Zm.29,3.3v-.06s-.03-.06-.03-.1h0v.16h.03Zm-.03.1s.03.1.03.13c0-.06.03-.1-.03-.13Zm.23-.81c0-.36-.03-.68-.1-1.04.03.36.03.68.1,1.04Zm-.13,1.39s-.03-.06-.03-.06h0v.06h.03Zm.97-.19c-.03-.62-.06-1.23-.23-1.85.03.65.13,1.26.23,1.85Zm.1-2.46h-.03c0,.06.03.13.03.19.03.19.03.39.06.58v.23c.03.16.03.36.06.52s.03.32.06.49c.03.23.06.49.1.71.03.23.03.45.06.68v.03s.03-.06.06-.1c0-.1,0-.16-.03-.26-.03-.39-.06-.78-.1-1.13-.03-.55-.13-1.1-.23-1.65,0-.03-.03-.1-.06-.06.06-.1,0-.13,0-.23Zm.42,4.15v-.06s0,0-.03,0c0,0,0,.03.03.06h0Z"/>
      <path class="cls-1" d="m92.67,40.57s-.03-.06-.06-.13c-.03.03-.03.06-.06.1-.03,0-.03.03-.03,0-.13-.06-.26-.1-.36-.16-.03,0-.06-.06-.1-.13,0,.03-.03.06-.03.1-.03.03-.1-.1-.16-.16-.03,0-.06.03-.1.06-.1-.03-.13-.1-.16-.16-.1-.23-.16-.42-.13-.62,0-.16,0-.32.03-.49,0-.06.03-.16.03-.23v-.65c0-.06,0-.1.03-.13.03-.1.03-.23.03-.32,0-.19.03-.42.03-.62,0-.13.03-.29.03-.45.03-.23.06-.45.06-.68.03-.58.1-1.17.13-1.72.03-.29.06-.55.16-.81,0-.1.06-.16.1-.26,0-.03.03-.06.03-.1-.03,0-.06-.03-.13-.03-.13,0-.29-.03-.42-.03-.16,0-.29-.06-.42-.13t-.06-.06s.06-.06.06-.03c.06,0,.13-.03.16-.03.32-.03.81,0,1.23.03.36.03.71.1,1.07.13.1,0,.19.03.32.03h.1c.13-.06.26,0,.36.03.1.03.1.13,0,.19-.1.06-.19.06-.29.06-.16-.03-.36,0-.52-.03-.19,0-.36-.03-.55-.06.03.1.03.19.06.26.03.13.06.26.1.36.06.42.13.87.16,1.3s.06.81.06,1.23v.81c0,.45-.03.91-.03,1.36,0,.42-.03.84-.06,1.26,0,.1-.03.23-.03.32-.03.06-.06.16-.1.23-.03.06-.1.13-.13.19-.03.06-.1.1-.16.03-.03.1-.13.16-.26.13Zm-.55-6.74c-.06.39-.06.84-.1,1.23-.03.29-.03.58-.03.91-.03.32-.06.65-.06,1-.03.36-.03.75-.06,1.07,0,.13-.03.26-.03.36-.03.26-.03.52-.06.78v.39s0,.03.03.03h.03c.13-2.01.26-4.05.39-6.06-.06.1-.1.23-.1.29Zm-.1,5.57c.06-.13.23-2.53.16-2.69-.06.87-.1,1.78-.16,2.69Zm.29-5.51v.1h0v-.1h0Zm0,.23c-.03.81-.06,1.65-.1,2.46h0c.03-.81.06-1.62.1-2.46h0Zm.03-.55v.06h.03s0-.06-.03-.06t0,0Zm.06-.49s0,.06.03.1h0v-.1h-.03Zm.36,6.58c0-.06,0-.1.03-.13,0-.42.03-.87.03-1.3.03-.52.03-1.07.06-1.62,0-.26.03-.49-.03-.75v.65c0,.19,0,.45-.03.65,0,.19-.03.42-.03.62,0,.23,0,.42-.03.65,0,.23-.03.42-.03.65s-.06.42-.03.65q.03-.06.06-.06Zm.13-4.02v-.26h0v.26h0Zm.19-1.94s.03.06.03.1h0v-.1h-.03Zm.13,5.9c0-.23.03-.49.03-.75,0-.45.03-.91.03-1.33.03-.58.03-1.17,0-1.75-.03-.32-.03-.65-.03-.94,0-.16-.03-.32-.06-.49-.03.1-.03.16,0,.26.03.26.03.55.03.84v.58c0,.23.06.45,0,.68-.03.1,0,.19,0,.29,0,.19-.03.39-.03.58h0v.29c0,.19,0,.36-.03.55v.45c0,.13,0,.26-.03.39-.03.19-.03.42-.06.65v.06c.1-.16.16-.26.16-.39Z"/>
      <path class="cls-1" d="m95.42,32.76c0-.26.26-.52.55-.52s.52.26.52.52-.23.52-.52.52c-.32,0-.55-.26-.55-.52Zm.97,1.04c-.03,2.79-.06,4.21-.1,7h-1c.06-2.79.06-4.21.13-7,.42-.03.62,0,.97,0Z"/>
      <path class="cls-1" d="m98.24,33.08s.06-.06.1-.06h.06c0,.1.06.06.13.06.03,0,.06,0,.1.03.1.03.19.13.32.1h0s.06.03.1.06c.03.13.19.13.19.26,0,.26.06.55.1.81.03.39.06.78.1,1.17.03.65.06,1.3.06,1.94v.91c0,.13,0,.23-.03.36-.03.29,0,.65,0,.97v.06c.19.03.36.06.52.03.1,0,.23,0,.36.03.06.03.13.19.1.29-.03.06-.1.03-.16,0v.13s-.06.03-.1.03c-.23,0-.45.03-.68.03-.19,0-.39-.03-.58-.03-.03,0-.06-.03-.13-.03-.19.06-.36-.06-.55-.06l-.03-.03c-.19.03-.23-.13-.29-.23-.03-.06-.03-.13-.06-.16-.03.13,0,.23.03.36-.06-.03-.13-.03-.16-.06-.19-.16-.36-.36-.32-.65.03-.32.06-.65.1-.97.03-.29.03-.55.06-.84.03-.32.03-.68.1-1v-.23c0-.26.03-.52.06-.81v-.42c0-.26.03-.52.06-.75.03-.26.06-.58.1-.87,0-.13.06-.26.1-.39.03-.1.13-.16.23-.16.03.06.03.1.03.13Zm-.45,6.25c.03.1-.03.23.03.29,0-.06,0-.19-.03-.29Zm.1-.84c-.06.06-.03.13-.03.23,0,.06-.03.13,0,.19v-.19c-.03-.06,0-.16.03-.23Zm.29-5.22s-.03.06-.03.06c-.03.19-.06.39-.1.58v.39c0,.19-.03.39-.06.58v.68c0,.29-.03.58-.03.87v.52c0,.16-.03.36-.03.52,0,.19-.03.39-.03.58,0,.03.03.06.03.06.03-.13.06-.26.06-.39.03-.42.06-.87.06-1.33.03-.42.03-.84.03-1.26,0-.26.03-.55.03-.81.03-.29.06-.65.1-.94,0-.03,0-.1.03-.13-.06.03-.06,0-.06,0Zm0,6.67c-.03-.06-.03-.13-.03-.19q-.06.13.03.19Zm.03-4.15c0,.65-.03,1.26-.06,1.88h.03c.03-.62.03-1.26.03-1.88t0,0Zm.65.65c0,.84-.03,1.68-.03,2.53.06-.84.1-1.68.06-2.49t-.03-.03Zm.39-.68s-.03.1-.03.13c0,.26.03.52.03.78,0,.23-.03.49-.03.71v.84c0,.26,0,.55-.03.81v.39s0,.1.06.13c.03-.1.03-.16.03-.23.03-.42.03-.94.03-1.43v-1.33c0-.16,0-.39-.03-.52.03-.13,0-.23-.03-.29t0,0Z"/>
      <path class="cls-1" d="m101.25,32.76c0-.26.23-.52.52-.52s.52.23.52.52c0,.26-.23.55-.52.55-.29-.03-.52-.29-.52-.55Zm1,1c.06,2.79.1,4.21.19,7-.39,0-.58,0-1,.03-.06-2.79-.1-4.21-.13-7,.39-.03.58-.03.94-.03Z"/>
      <path class="cls-1" d="m104.1,32.95s.06-.06.1-.06h.06c0,.1.06.06.13.06.03,0,.06,0,.1.03.1.03.19.13.32.06h0s.06.03.1.03c.03.13.19.13.19.26.03.26.1.55.1.81.03.39.1.78.13,1.17.06.65.13,1.3.16,1.91,0,.29.03.62.03.91v.36c0,.29.03.65.03.97v.06c.19,0,.36.03.52,0,.1-.03.23,0,.36.03.06.03.16.19.1.26-.03.06-.1.03-.16,0v.13s-.06.03-.1.03c-.23.03-.45.06-.68.06-.19.03-.39,0-.58,0-.03,0-.06-.03-.13-.03-.19.06-.36-.03-.55-.03l-.03-.03c-.19.03-.23-.1-.29-.23-.03-.06-.06-.1-.06-.16-.03.13.03.23.06.36-.06-.03-.13-.03-.16-.06-.19-.16-.36-.36-.32-.62.03-.32.03-.65.03-.97,0-.29,0-.55.03-.84.03-.32,0-.68.03-1v-.23c0-.26,0-.52.03-.81v-.42c0-.26.03-.52.03-.75,0-.26.03-.58.06-.87,0-.13.03-.26.06-.39.03-.1.13-.16.23-.19.03.16.03.19.06.19Zm-.23,6.32c.03.1-.03.23.06.29-.03-.1-.03-.23-.06-.29Zm.03-.87c-.06.06-.03.13-.03.23,0,.06-.03.13,0,.19v-.19c0-.06.03-.16.03-.23Zm.13-5.22s-.03.06-.03.06c0,.19-.03.39-.06.58v.39c0,.19-.03.39-.03.58v2.59c0,.19,0,.39-.03.58,0,.03.03.06.03.06.03-.13.03-.26.03-.39,0-.42.03-.87.03-1.33v-2.07c0-.29.03-.65.06-.97,0-.03,0-.1.03-.13-.03.06-.03.03-.03.03Zm.23,6.67c-.03-.06-.03-.13-.06-.19q-.03.13.06.19Zm-.1-4.18v1.88h.03c.03-.62,0-1.26-.03-1.88h0Zm.65.65c.03.84.03,1.68.06,2.53.03-.84.03-1.68-.03-2.49t-.03-.03Zm.39-.71s-.03.1-.03.13c0,.26.06.52.06.78v.71c0,.26,0,.55.03.84v1.2s0,.1.06.13c.03-.1.03-.16.03-.23.03-.42,0-.94,0-1.43,0-.32-.03-.65-.03-.97v-.36c0-.16-.03-.39-.03-.52-.06-.13-.06-.23-.1-.29h0Z"/>
      <path class="cls-1" d="m108.61,35.9c.06,0,.13-.03.16-.03.26-.03.55-.06.81-.1.06,0,.1,0,.19.03.16.03.23.16.19.23,0,0-.13,0-.1.1,0,0-.06,0-.1.03-.32.06-.65.13-.97.16-.03,0-.06.03-.13.03,0,.1.03.23.03.32.03.23.06.49.1.75.03.26.03.55.1.81,0,.06.03.1.03.19s.03.19.03.29c.03.16.06.32.06.49v.42c.23-.03.49-.06.71-.1.26-.03.58-.06.71-.03.06.03.1.13.13.19v.03c-.06.06-.1.19-.23.23-.1.03-.19.06-.29.06-.32.03-.68.06-1.04.06-.13,0-.26.03-.39.03-.32.1-.65.1-1,.13-.16,0-.19-.03-.19-.16,0-.03,0-.06-.06-.1-.1-.13-.23-.26-.29-.42-.06-.16-.1-.32-.13-.49,0-.16-.03-.29-.06-.42v-.19c0-.13-.03-.29-.03-.45s.03-.32,0-.49c-.03-.13,0-.32,0-.49,0-.1-.03-.19-.06-.32v-.29c0-.19-.03-.42-.03-.65,0-.1,0-.26-.03-.39v-1.39c.03-.32.03-.65.1-.97.03-.13.06-.19.1-.29h0c.03-.06.1-.06.19-.1.06,0,.1-.06.16,0,.03,0,.03.03.03.03.19-.03.39.06.55,0,.26-.1.62-.13.94-.13.1,0,.19.03.26.03s.13,0,.23.03c.06,0,.13.03.16.06.03.03.03.06.03.1,0,.06-.03.06-.06.1-.13.1-.26.1-.42.13-.26.03-.55.06-.81.1t-.06.03c.23.94.36,1.85.49,2.79Zm-1.52-2.75v.1c-.03.16-.03.36-.03.52,0,.23-.03.49-.03.75,0,.16.03.36.03.55,0,.29,0,.58.03.84,0,.13,0,.32.03.45.03.19.03.42.03.62,0,.06.03.1.03.16,0-.03.03-.03.03-.06,0-.23,0-.42-.03-.65,0-.19-.03-.36-.03-.55-.03-.32,0-.68-.03-1v-.75c0-.26.03-.58.03-.87v-.16q-.03.06-.06.06Zm.1,4.28v-.23h-.03c-.03.1,0,.16,0,.23,0,.03.03.1.03.13h0s-.03-.06-.06-.1c.03,0,.06-.03.06-.03Zm.19,2.04c.03.1.06.19.1.29.06.1.06.19.19.26-.1-.19-.19-.39-.29-.55h0Zm.06-2.72c-.06-1-.13-2.01-.19-3.05-.03,1.04.03,2.04.13,3.05h.06Zm0,.36v-.19h-.03c0,.06,0,.13.03.19h0Zm-.16-3.82c0,.1-.03.23,0,.32h0c0-.1.03-.23,0-.32h0Zm.62,1.72s0,.06.03.1c0-.03,0-.06-.03-.1h0Zm.13,1.1c.03-.06-.03-.65-.1-.81,0,.19.06.75.1.81Zm.06.39s-.03-.03-.03-.06c-.03.1.06,1.17.16,1.49-.03-.45-.1-.94-.13-1.43Zm-.03-3.05c.03.23.06.49.1.75h.03c-.03-.26-.06-.49-.1-.75h-.03Zm.1.87c.06.55.13,1.13.19,1.68q.1-.03.1-.1c-.06-.39-.1-.81-.16-1.2,0-.1-.03-.19-.06-.29,0-.03,0-.06-.03-.06t-.03-.03Zm.23,2.14v.13c0,.13,0,.23.03.36.03.16.06.32.06.49.03.19.06.36.1.55.03.23.06.49.06.68,0,.13.03.26.06.42h.03c-.1-.91-.16-1.81-.26-2.69-.03,0-.1.03-.1.06Z"/>
      <path class="cls-1" d="m113.21,35.51c.36.1.58.36.75.65.19.36.32.71.45,1.1s.26.78.29,1.2c.03.23.03.45.06.68v.06c-.03.1.06.26-.1.36-.13.06-.29,0-.45.03-.06,0-.1-.03-.1-.1,0-.1,0-.23-.03-.36-.03-.45-.1-.97-.23-1.46-.1-.32-.19-.65-.29-.97-.06-.29-.19-.55-.36-.81-.1-.13-.23-.23-.39-.29-.03-.03-.06-.03-.13-.03v.13c.03.26.06.55.06.81.03.19.03.39.06.62,0,.13.03.23.03.36,0,.16.03.32.03.49s.03.32.03.49c.03.19,0,.39.03.55.03.23-.1.39-.26.55-.03.03-.06.06-.06.1-.1.13-.16.16-.29.06-.03.03-.06.06-.06.1-.16-.03-.32,0-.52-.03,0-.03-.03-.06-.1-.13-.03.06,0,.13,0,.16-.06,0-.1,0-.13-.06-.06-.1-.13-.16-.19-.26h-.03c-.03.13.13.29.1.32s-.19-.03-.26-.1c-.06-.06-.13-.16-.19-.26-.06-.13-.06-.29-.03-.42v-.19c0-.13-.03-.26-.03-.39v-.42c0-.26-.03-.49-.03-.75,0-.23-.03-.52,0-.75v-.52c0-.19-.03-.39-.03-.55v-.52c0-.32-.06-.65-.06-.97v-.68c0-.13,0-.32.03-.45,0-.06.03-.1.1-.16.06-.06.06-.1.19,0,.03-.03.03-.13.1-.13.03,0,.1.06.13.1.03,0,.06-.06.13-.03.03,0,.06-.03.1-.06.42-.32.91-.45,1.43-.39.19.03.36.03.52.06.29.06.52.16.71.39.06.1.13.16.16.29.13.39.19.78.13,1.2-.03.19-.16.39-.29.52-.26.26-.52.49-.87.62-.1.06-.19.13-.29.19.03.03.13.03.19.06Zm-2.04,1.43s0-.03-.03-.06h-.03s.03.06.06.06t0,0Zm-.19-4.05l-.03.03v.68c0,.23.03.49.03.68v.42c0,.23.03.42.03.65,0,.16,0,.29.03.42.03.16,0,.36.03.52v.03c-.03.1.03.19.03.29.03-1.2-.06-2.46-.13-3.73Zm.45,3.43c-.06-1.1-.16-2.17-.23-3.27.03,1.04.13,2.07.16,3.08,0,.06.03.16.06.19t0,0Zm0,.26v-.1l-.03.03.03.06h0Zm.75.39v-.29c-.03-.32-.03-.65-.06-.97,0-.06,0-.13-.06-.16-.03.13.1,1.3.13,1.43Zm-.32-3.21c.06.55.1,1.13.16,1.72.03-.03.06-.03.06-.03-.06-.58-.13-1.13-.23-1.68t0,0Zm.36-.91c.1.19.13.39.16.55.03.32.13.68.19,1,.03.16.03.32.03.45,0,.06.03.1.03.16.03-.03.06-.03.06-.03.23-.16.45-.29.62-.49.13-.13.23-.32.26-.49.1-.45,0-.91-.19-1.36-.06-.13-.13-.19-.26-.19-.36-.03-.68,0-1,.19q-.06.03,0,.13v-.13c.06.06.1.16.1.19Zm-.06.42c.06.65.16,1.3.23,1.94.06,0,.1-.03.1-.1v-.13c-.06-.55-.13-1.1-.26-1.65,0-.03,0-.06-.03-.1t-.03.03Zm.36,2.37s-.06,0-.1.03c.06.62.13,1.2.19,1.81h0c.06-.16-.03-1.72-.1-1.85Zm.13,2.07s.03,0,0,0v-.06s-.03.06,0,.06h0Zm.06.39s0-.1-.03-.13h-.03s.03.1.03.13h.03Zm.97-4.96h0v.1c.03.16.06.29.06.42,0-.13,0-.26-.03-.36,0-.03-.03-.03-.03-.06v-.1Zm.87,4.86c-.06-.36-.16-.68-.29-1,.1.36.16.68.29,1Zm0,.13v.1h0s.03-.06,0-.1t0,0Zm-.39-4.47v.13-.13Zm.16-.36v.65c.06-.23.06-.42,0-.65Z"/>
    </g>
  </g>
</svg>