<?xml version="1.0" encoding="utf-8"?>
<!-- Generator: Adobe Illustrator 27.6.0, SVG Export Plug-In . SVG Version: 6.00 Build 0)  -->
<svg version="1.1" id="Layer_1" xmlns="http://www.w3.org/2000/svg" xmlns:xlink="http://www.w3.org/1999/xlink" x="0px" y="0px"
	 viewBox="0 0 595.3 841.9" style="enable-background:new 0 0 595.3 841.9;" xml:space="preserve">
<style type="text/css">
	.st0{fill:#EA717A;}
	.st1{fill:#FDFAE1;}
	.st2{fill:#88D0CC;}
</style>
<rect x="44.6" y="147" class="st0" width="515.3" height="571.3"/>
<g>
	
		<ellipse transform="matrix(0.9448 -0.3277 0.3277 0.9448 -80.6526 101.9272)" class="st1" cx="262.2" cy="290.3" rx="22.4" ry="30.8"/>
	
		<ellipse transform="matrix(0.8375 -0.5465 0.5465 0.8375 -143.8884 173.7739)" class="st1" cx="220.2" cy="328.8" rx="18" ry="24.7"/>
	
		<ellipse transform="matrix(0.3277 -0.9448 0.9448 0.3277 -50.0678 510.2648)" class="st1" cx="333.5" cy="290.3" rx="30.8" ry="22.4"/>
	
		<ellipse transform="matrix(0.5465 -0.8375 0.8375 0.5465 -105.0711 463.5293)" class="st1" cx="375.5" cy="328.8" rx="24.7" ry="18"/>
	<path class="st1" d="M298,331.2c-40.4,0-73.1,46.2-73.1,80.2c0,27.8,22,12.9,52.1,6.6c-0.5-0.4-1-0.7-1.5-1.1
		c-37.3-26.6-20-49.5-20-49.5l0,0c4.5-7.2,12.4-12,21.5-11.9c8.9,0,16.6,4.7,21.1,11.6c4.5-6.9,12.3-11.5,21.2-11.4
		c7,0,13.3,2.9,17.9,7.6l0,0c0,0,0.6,0.5,1.4,1.5c0.1,0.1,0.2,0.3,0.3,0.4c0.2,0.3,0.4,0.5,0.6,0.9c1.4,1.9,2.5,3.9,3.3,6.1
		c0.1,0.3,0.2,0.6,0.3,0.9c0.1,0.2,0.1,0.4,0.2,0.6c3.1,9.6,2,25.2-21.7,43.9c-0.3,0.3-0.7,0.5-1,0.8c29.4,6.5,50.6,20.5,50.6-6.9
		C371.1,377.4,338.4,331.2,298,331.2z"/>
</g>
<g>
	<path class="st1" d="M216.4,452.6c8.5-0.8,14.4-0.9,17.8-0.3c3.4,0.6,5.5,2.1,6.3,4.6c0.9,2.5,0.9,5.2,0.2,8.1
		c-0.7,2.9-2.6,5.1-5.7,6.5c3.7,1.9,5.6,4.5,5.7,8c0.1,3.5-0.6,6.1-2,8.1c-1.4,1.9-3.2,2.9-5.1,3c-6.7,1-13.5,1.4-20.3,1.1l-1.2,0.2
		c-0.8,0.1-1.3-0.2-1.5-0.8l-0.3-0.9l3.2-35.7L216.4,452.6z M220,475.3l-0.9,8.8c8.1,0.1,12.5-0.8,13.2-2.5c0.7-1.8,0.6-3.4-0.3-4.9
		C231,475.2,227.1,474.7,220,475.3z M221.8,459.7l-0.9,9.2c7.1,0.2,11.1-0.7,11.8-2.7c0.7-2,0.7-3.8,0-5.3
		C231.9,459.4,228.3,459,221.8,459.7z"/>
	<path class="st1" d="M272.3,452c0.8,2.7,0.7,5.2-0.4,7.5l-16.7,0.5l-0.5,6.5l13.7-0.3c1.3,2.5,1.2,4.8-0.3,7.1l-14,0.6l-0.7,7.9
		l17.1-0.5c1.4,3,1.2,5.8-0.6,8.5l-23.9,0.9c-0.7-0.1-1.2-0.7-1.4-1.6l2.3-35c0.2-0.7,0.6-1.1,1.2-1.4L272.3,452z"/>
	<path class="st1" d="M282.5,452.6c8.5-0.8,14.4-0.9,17.8-0.3c3.4,0.6,5.5,2.1,6.4,4.7c0.9,2.6,0.9,6,0.1,10.3
		c-0.8,4.3-4,7.2-9.5,8.5l9,11.7c-1.7,3.4-4.5,4.4-8.4,3.2l-9-13l-3,0.3l-1.2,12.1c-3.5,1.2-6.3,1-8.4-0.8l3.2-35L282.5,452.6z
		 M287.8,459.7l-1.1,10.6c7-0.5,11-1.7,11.8-3.7c0.9-2,0.9-3.8,0.1-5.5C297.9,459.4,294.3,458.9,287.8,459.7z"/>
	<path class="st1" d="M321.7,452.3l-1.8,29.6l15.3-0.4c1.4,3,1.2,5.9-0.6,8.5l-22.3,0.8c-0.7-0.1-1.2-0.7-1.4-1.6l2.1-36.4
		C315.1,451.8,317.9,451.6,321.7,452.3z"/>
	<path class="st1" d="M343.7,452.3c2.6-0.6,5.4-0.5,8.4,0.4l-3,37.6c-3.5,1-6.4,0.9-8.8-0.4L343.7,452.3z"/>
	<path class="st1" d="M364.5,452.6l12.2,20.6l1.2-20.1c2.6-1.3,5.1-1.3,7.6,0.1l-2.2,36.4c-1.7,1.6-4.1,1.8-7.1,0.6l-11.4-20.9
		l-1.4,20.9c-3.7,0.9-6.4,0.7-8.3-0.6l2.2-35.9C358.4,452,360.8,451.7,364.5,452.6z"/>
</g>
<g>
	<path class="st2" d="M451.6,534.4c-101.3,31.4-205.8,31.4-307.1,0c9-6.8,13.4-10.3,21.8-17.4c-3.3-10.6-4.8-15.9-7.6-26.5
		c92,28.4,186.6,28.4,278.6,0c-2.7,9-5.7,18-9,26.9C435.9,523.3,443.6,529,451.6,534.4z"/>
	<g>
		<path class="st1" d="M415.9,530.7c1,4.1-4.2,1.6-9.6,2.8s-9,5.8-9.9,1.6c-0.9-4.2,2.2-10.7,7.5-11.9
			C409.2,522.1,414.9,526.6,415.9,530.7z"/>
		<path class="st1" d="M400.7,517.8c1.2,1.8,1,3.9-0.4,4.8c-1.4,0.8-3.5,0-4.6-1.8c-1.1-1.8-0.9-3.9,0.5-4.8
			C397.5,515.2,399.6,516,400.7,517.8z"/>
		<path class="st1" d="M395.5,523.6c1.3,1.2,1.5,2.9,0.6,3.8c-1,0.9-2.8,0.6-4-0.6c-1.3-1.2-1.5-2.9-0.6-3.8
			C392.4,522.1,394.2,522.4,395.5,523.6z"/>
		<path class="st1" d="M404.5,517c-0.3,2.1,0.8,4,2.5,4.1c1.6,0.1,3.2-1.5,3.4-3.6c0.2-2.1-0.9-4-2.5-4.1
			C406.2,513.2,404.7,514.8,404.5,517z"/>
		<path class="st1" d="M411.7,519.9c-0.6,1.6-0.1,3.3,1.1,3.6c1.2,0.4,2.8-0.6,3.4-2.3c0.6-1.6,0.1-3.3-1.2-3.6
			C413.9,517.2,412.4,518.2,411.7,519.9z"/>
	</g>
	<g>
		<path class="st1" d="M377.5,538.7c0.7,4.2-4.3,1.3-9.8,2.1c-5.4,0.8-9.4,5-9.9,0.8c-0.5-4.2,3.1-10.5,8.4-11.3
			C371.5,529.6,376.8,534.6,377.5,538.7z"/>
		<path class="st1" d="M363.4,524.7c1,1.9,0.6,4-0.8,4.7c-1.5,0.7-3.5-0.2-4.5-2.1s-0.6-4,0.9-4.7
			C360.4,521.8,362.4,522.8,363.4,524.7z"/>
		<path class="st1" d="M357.7,530c1.2,1.3,1.3,3,0.3,3.8c-1,0.8-2.8,0.4-3.9-0.9c-1.2-1.3-1.3-3-0.2-3.8
			C354.8,528.3,356.5,528.7,357.7,530z"/>
		<path class="st1" d="M367.2,524.1c-0.4,2.1,0.5,4,2.1,4.3c1.6,0.3,3.3-1.2,3.7-3.3c0.4-2.1-0.6-4-2.2-4.3
			C369.2,520.5,367.6,522,367.2,524.1z"/>
		<path class="st1" d="M374.2,527.6c-0.7,1.6-0.4,3.2,0.8,3.7c1.2,0.5,2.8-0.4,3.5-2c0.7-1.6,0.3-3.2-0.9-3.7
			C376.5,525.1,374.9,526,374.2,527.6z"/>
	</g>
	<g>
		<path class="st1" d="M237.1,541.8c-0.5,4.2-4.5,0-9.9-0.8c-5.4-0.8-10.5,2.1-9.8-2.1c0.7-4.2,6-9.1,11.3-8.4
			C234,531.3,237.6,537.6,237.1,541.8z"/>
		<path class="st1" d="M227.6,524.3c0.4,2.1-0.5,4-2.1,4.3c-1.6,0.3-3.3-1.2-3.7-3.3c-0.4-2.1,0.6-4,2.2-4.3
			C225.6,520.7,227.2,522.2,227.6,524.3z"/>
		<path class="st1" d="M220.6,527.7c0.7,1.6,0.4,3.2-0.8,3.7c-1.2,0.5-2.8-0.4-3.5-2s-0.3-3.2,0.9-3.7
			C218.3,525.3,219.9,526.1,220.6,527.7z"/>
		<path class="st1" d="M231.4,524.8c-1,1.9-0.7,4,0.8,4.7c1.5,0.7,3.5-0.2,4.5-2.1c1-1.9,0.6-4-0.8-4.7
			C234.4,522,232.4,522.9,231.4,524.8z"/>
		<path class="st1" d="M237.1,530.1c-1.2,1.3-1.3,3-0.3,3.8c1,0.8,2.8,0.4,4-0.9c1.2-1.3,1.3-3,0.3-3.8
			C240,528.5,238.3,528.9,237.1,530.1z"/>
	</g>
	<g>
		<path class="st1" d="M200,535.3c-0.9,4.2-4.5-0.4-9.9-1.6s-10.6,1.3-9.6-2.8c1-4.1,6.7-8.7,12-7.4
			C197.8,524.6,200.9,531.1,200,535.3z"/>
		<path class="st1" d="M192,517.1c0.3,2.1-0.8,4-2.5,4.1c-1.6,0.1-3.2-1.5-3.4-3.6c-0.2-2.1,0.9-4,2.5-4.1
			C190.2,513.3,191.7,515,192,517.1z"/>
		<path class="st1" d="M184.7,520c0.6,1.6,0.1,3.3-1.1,3.6c-1.2,0.4-2.8-0.6-3.4-2.3c-0.6-1.6-0.1-3.3,1.1-3.6
			C182.6,517.3,184.1,518.3,184.7,520z"/>
		<path class="st1" d="M195.7,517.9c-1.2,1.8-1,3.9,0.4,4.8c1.4,0.8,3.5,0,4.6-1.8c1.1-1.8,0.9-3.9-0.5-4.8
			C198.9,515.3,196.9,516.1,195.7,517.9z"/>
		<path class="st1" d="M201,523.7c-1.3,1.2-1.5,2.9-0.6,3.8c1,0.9,2.8,0.6,4-0.6c1.3-1.2,1.5-2.9,0.5-3.8
			C204,522.2,202.3,522.5,201,523.7z"/>
	</g>
	<g>
		<path class="st1" d="M253.7,535.8c0,0.4-0.1,0.8-0.1,1.2c0,0.3-0.1,0.6-0.1,0.9c0,0.8-0.1,1.6-0.2,2.3c-0.1,0.5-0.1,1.1-0.2,1.7
			c-0.1,1-0.2,2-0.4,3c-0.1,0.4-0.1,0.7-0.1,1.1c-0.1,0.4-0.3,0.9-0.6,1.3c-0.1,0.1-0.1,0.3-0.2,0.3c0,0-0.2,0-0.3,0.1
			c0,0-0.1,0.2-0.2,0.3c-0.2,0.4-0.4,0.4-0.7,0.1c-0.1,0-0.1,0-0.1,0c-0.1,0.1-0.2,0.2-0.2,0.3c-0.7-0.2-1.4-0.4-2.2-0.3
			c-0.1-0.1-0.2-0.2-0.2-0.3c-0.1,0-0.1,0.1-0.1,0.1c-0.4,0.2-0.7,0.2-0.9-0.1c-0.2-0.3-0.4-0.7-0.5-1.1c-0.1-0.5-0.1-1,0.1-1.5
			c0.1-0.3,0.1-0.6,0.1-0.9c0.1-0.7,0.3-1.3,0.4-1.9c0.1-0.4,0-1,0.2-1.5c0.3-0.8,0.2-1.8,0.3-2.6c0.1-0.6,0.3-1.2,0.3-1.8
			c0-0.3,0.1-0.7,0.2-1c0.1-0.4,0.2-0.9,0.3-1.4c0,0,0.1-0.1,0.1-0.2c-0.2-0.8,0.2-1.4,0.2-2.2c0.1-0.7,0.3-1.5,0.4-2.2
			c0.1-0.6,0.2-1.3,0.3-1.9c0.1-0.7,0.2-1.4,0.4-2.1c0.1-0.4,0.2-0.9,0.3-1.2c0.1-0.2,0.2-0.4,0.3-0.6c0.1-0.2,0.2-0.3,0.5-0.4
			c0,0.1,0.1,0.3,0.1,0.4c0,0,0,0,0.1,0c0.1-0.1,0.1-0.2,0.1-0.3c0.1-0.2,0.2-0.2,0.4-0.2c0,0.1,0,0.3,0,0.5
			c0.2-0.1,0.3-0.2,0.5-0.3c0.3,0.1,0.6,0.2,0.9,0.4c0.1,0,0.2,0.1,0.3,0c0.1-0.1,0.3-0.1,0.4,0c0.1,0,0.3,0.1,0.4,0.1
			c0.6,0,1.2,0.1,1.9,0.2c0.5,0.1,1,0.3,1.4,0.4c1.2,0.3,2.2,1,2.9,2c0.4,0.6,0.7,1.2,0.9,1.9c0.1,0.6,0.1,1.3,0,1.9
			c-0.2,0.8-0.6,1.5-1.1,2.2c-0.5,0.6-1.3,1.1-2,1.4c-1.1,0.4-2.2,0.5-3.3,0.5c-0.1,0-0.1,0-0.3,0
			C253.7,534.7,253.7,535.3,253.7,535.8z M249,533.7c0,0.2,0,0.4,0,0.6c0,0,0,0,0.1,0c0-0.2,0-0.4,0.1-0.6
			C249,533.7,249,533.7,249,533.7z M249.2,532.1c0,0.1,0,0.2,0,0.3c0,0.1,0,0.1,0,0.2c0.1,0,0.1,0,0.1,0c0.1-0.2,0.1-0.3,0.1-0.5
			C249.3,532.1,249.3,532.1,249.2,532.1z M250.2,524.7c-0.1,0.6-0.3,1.2-0.4,1.8c-0.1,0.6-0.1,1.2-0.2,1.8c-0.1,0.6-0.1,1.2-0.2,1.8
			c-0.1,0.9-0.2,1.5,0,1.8c0.3-2.4,0.6-4.8,0.9-7.1C250.3,524.7,250.3,524.7,250.2,524.7z M250.8,526c0-0.2,0.1-0.3,0.1-0.5
			c0,0,0,0,0,0c-0.1,0.2-0.1,0.3-0.2,0.5C250.7,526,250.7,526,250.8,526z M250.2,532c0.2-1.9,0.4-3.8,0.6-5.7c-0.1,0-0.1,0-0.1,0
			c-0.2,1.9-0.4,3.8-0.6,5.7C250.1,532,250.1,532,250.2,532z M250,532.5c0,0.1,0,0.2,0,0.2c0,0,0-0.1,0-0.1
			C250,532.5,250,532.5,250,532.5C250,532.5,250,532.5,250,532.5z M250.9,525.1c0-0.1,0-0.2,0-0.4c0,0,0,0,0,0
			C250.9,524.9,250.9,525,250.9,525.1C250.9,525.1,250.9,525.1,250.9,525.1z M252.2,529.2c0,0.1-0.1,0.2-0.1,0.3c0,0.1,0,0.2,0,0.3
			c-0.1,0.9-0.1,1.9-0.2,2.8c0,0.1,0,0.2,0,0.4c0.1-0.1,0.1-0.1,0.1-0.2c0.1-1.1,0.1-2.1,0.1-3.1c0,0-0.1-0.1-0.1-0.2
			C252.2,529.4,252.4,529.4,252.2,529.2z M252.3,528.5c0-0.2,0-0.4,0.1-0.6C252.3,528.1,252.3,528.3,252.3,528.5z M251.9,534.7
			c0-0.3,0.1-0.6,0.1-0.9c-0.1,0.1-0.1,0.1-0.1,0.1c0,0.3-0.1,0.5-0.1,0.8C251.8,534.7,251.9,534.7,251.9,534.7z M253.3,525.3
			c0,0.2,0,0.4,0,0.5c0,0.2,0.1,0.5,0.1,0.7c0,0,0,0,0.1,0c0-0.1,0-0.4,0-0.5c0,0-0.1-0.1-0.2-0.2
			C253.5,525.7,253.5,525.5,253.3,525.3z M253.1,533.1c0.1,0,0.2,0,0.3,0c0.1-0.8,0.2-5.2,0-5.9
			C253.4,529.1,253.2,531.1,253.1,533.1z M256.4,532.4c0.5-0.2,0.9-0.5,1.2-0.9c0.2-0.4,0.5-0.9,0.7-1.4c0.2-0.5,0.3-1.2,0.3-1.7
			c-0.1-1.1-0.6-2.1-1.4-2.9c-0.2-0.2-0.5-0.4-0.8-0.6c-0.5-0.2-1.2-0.3-1.8-0.4c-0.2,0-0.5,0-0.7,0c0.2,2.8,0.2,5.6,0.2,8.5
			C254.9,533,255.7,532.8,256.4,532.4z M253.2,534.1c-0.2-0.1-0.3,0-0.3,0.2c0,0.4,0,0.8-0.1,1.2c-0.1,0.3,0,0.7-0.1,0.9
			c0,0.1,0.1,0.2,0.1,0.3C253.1,535.9,253.2,535,253.2,534.1z M252.7,538.1c0,0.1,0,0.1,0,0.2c0-0.1,0-0.1,0-0.1
			C252.7,538.2,252.7,538.2,252.7,538.1C252.7,538.1,252.7,538.1,252.7,538.1z M252.8,537.4c0,0.1,0,0.2,0,0.3c0,0,0,0,0.1,0
			C252.9,537.6,252.9,537.5,252.8,537.4C252.9,537.4,252.8,537.4,252.8,537.4z M259,529.1c0,0,0-0.1,0-0.1c0,0,0-0.1,0-0.2
			c-0.1,0-0.1,0.1-0.1,0.1C258.9,528.9,258.9,529,259,529.1C258.9,529.1,258.9,529.1,259,529.1z M260,529.4c0,0.1,0,0.3,0,0.4
			C260,529.6,260,529.5,260,529.4z M260.5,529c0,0.4-0.1,0.7-0.1,1.1C260.6,529.7,260.6,529.4,260.5,529z"/>
		<path class="st1" d="M267.2,524.5C267.2,524.5,267.2,524.5,267.2,524.5c0.1-0.2,0.2-0.3,0.3-0.3c0.1,0,0.1,0.1,0.1,0.3
			c0.1,0,0.1,0,0.1,0.1c0.2-0.4,0.5-0.3,0.7-0.2c0.2,0.1,0.4,0.2,0.7,0.1c0.1,0,0.2,0,0.3,0.1c0.5,0.2,0.9,0.5,1.1,1.1
			c0.5,1.4,0.9,2.7,1.1,4.1c0.1,0.2,0.1,0.4,0.2,0.7c0.2,0.9,0.4,1.8,0.6,2.7c0.1,0.8,0.2,1.6,0.3,2.3c0.1,0.7,0.3,1.5,0.3,2.2
			c0.1,0.8,0.1,1.6,0.2,2.4c0.1,0.9,0.1,1.9,0.2,2.7c0.1,0.4,0.1,1,0.1,1.4c0,0.5,0.1,1,0.1,1.5c0,0.7,0,1.5-0.1,2.3
			c0,0.3-0.1,0.6-0.2,1c-0.1,0.2-0.2,0.3-0.4,0.4c-0.2,0.1-0.3,0.3-0.4,0.5c-0.3,0.4-0.4,0.4-1,0.2c0,0.1-0.2,0.2-0.3,0.3
			c-0.5-0.1-1-0.2-1.5-0.3c0,0,0,0.1,0,0.1c0-0.1-0.1-0.2-0.2-0.3c-0.1,0.2-0.3,0.4-0.4,0.3c-0.1-0.1-0.2-0.3-0.3-0.5
			c-0.2,0.2-0.3,0.4-0.4,0.6c-0.2-0.1-0.3-0.1-0.4-0.2c-0.4-0.4-0.6-0.8-0.6-1.3c0-0.5,0.1-1.1,0-1.6c0-0.4,0-0.9-0.1-1.3
			c0-0.7,0-1.4,0-2c0-1,0-2-0.1-3c0-0.4-0.1-0.9-0.1-1.4c0-0.3,0-0.6,0-1c0-0.4,0-1-0.1-1.4c0-0.1,0-0.2-0.1-0.3
			c-0.9,0-2.5-0.1-2.7,0.1c-0.2,0.2-0.3,1.5-0.5,2.2c-0.2,0.8-0.5,1.8-0.7,2.7c-0.3,1.2-0.6,2.6-0.9,3.9c-0.1,0.6-0.3,1.1-0.5,1.6
			c-0.1,0.4-0.5,0.5-0.9,0.3c-0.1,0-0.3-0.1-0.5-0.1c0-0.2,0-0.4,0-0.5c0.3-1.4,0.5-2.7,0.8-4c0.5-2,1-4.1,1.5-6.2
			c0.1-0.2,0.1-0.3,0-0.5c-0.1-0.2-0.1-0.3,0.2-0.5c0.1-0.1,0.2-0.2,0.2-0.4c0.6-2.3,1.5-4.6,2.2-6.8c0.3-1,0.7-2,1.1-3
			c0.1-0.3,0.2-0.6,0.2-0.9c0-0.3,0.2-0.5,0.5-0.5C267.1,524.4,267.1,524.5,267.2,524.5z M264.5,535.4c0.8,0,1.6-0.1,2.4-0.1
			c-0.1-2-0.5-3.9-0.5-5.9C265.8,531.4,265.1,533.3,264.5,535.4z M267.1,527.3c0,0.1,0,0.2,0,0.3c0.1,0.6,0.1,1.2,0.1,1.8
			c0.1,1,0.2,2,0.2,3c0.1,0.8,0.2,1.7,0.2,2.5c0,0.1,0.1,0.2,0.1,0.2c0,0.1,0.1,0.1,0.2,0.2c0-0.1,0-0.2,0-0.2
			c-0.1-2.6-0.4-5.1-0.7-7.6c0,0,0-0.1,0-0.2C267.2,527.3,267.2,527.3,267.1,527.3z M268,537.5c0-0.1,0-0.1,0-0.2
			c0-0.1-0.1-0.2-0.1-0.3c0,0,0,0,0,0c0,0.2,0,0.4,0,0.5C267.9,537.5,267.9,537.5,268,537.5z M267.9,537.8c0.1,0.1,0.1,0.3,0.1,0.4
			C268,538,268.1,537.9,267.9,537.8z M268.6,535.3c0-1.1-0.1-2.1-0.3-3.2C268.4,533.2,268.4,534.2,268.6,535.3z M268.2,539.6
			c-0.1-0.1-0.1-0.2-0.1-0.2c0,0,0,0,0,0c0,0.1,0,0.2,0,0.2C268.1,539.6,268.1,539.6,268.2,539.6z M271.2,539
			c-0.1-1.9-0.2-3.8-0.7-5.7C270.6,535.3,270.9,537.2,271.2,539z M271.5,531.4c-0.1,0-0.1,0-0.1,0c0,0.2,0.1,0.4,0.1,0.6
			c0.1,0.6,0.1,1.2,0.2,1.8c0,0.3,0,0.5,0,0.7c0.1,0.5,0.1,1.1,0.2,1.6c0.1,0.5,0.1,1,0.2,1.5c0.1,0.7,0.2,1.5,0.3,2.2
			c0.1,0.7,0.1,1.4,0.2,2.1c0,0,0,0,0,0.1c0.1-0.1,0.1-0.2,0.2-0.3c0-0.3,0-0.5-0.1-0.8c-0.1-1.2-0.2-2.4-0.3-3.5
			c-0.1-1.7-0.4-3.4-0.7-5.1c0-0.1-0.1-0.3-0.2-0.2C271.7,531.8,271.5,531.7,271.5,531.4z M272.8,544.2c0-0.1,0-0.1,0-0.2
			c0-0.1,0,0-0.1,0C272.7,544,272.7,544.1,272.8,544.2C272.8,544.2,272.8,544.2,272.8,544.2z"/>
		<path class="st1" d="M280.4,549.4c0-0.1-0.1-0.2-0.2-0.4c-0.1,0.1-0.1,0.2-0.2,0.3c-0.1,0-0.1,0.1-0.1,0c-0.4-0.2-0.8-0.3-1.1-0.5
			c-0.1,0-0.2-0.2-0.3-0.4c0,0.1-0.1,0.2-0.1,0.3c-0.1,0.1-0.3-0.3-0.5-0.5c-0.1,0-0.2,0.1-0.3,0.2c-0.3-0.1-0.4-0.3-0.5-0.5
			c-0.3-0.7-0.5-1.3-0.4-1.9c0-0.5,0-1,0.1-1.5c0-0.2,0.1-0.5,0.1-0.7c0-0.1,0-0.1,0-0.2c0-0.6,0-1.2,0-1.8c0-0.2,0-0.3,0.1-0.4
			c0.1-0.3,0.1-0.7,0.1-1c0-0.6,0.1-1.3,0.1-1.9c0-0.4,0.1-0.9,0.1-1.4c0.1-0.7,0.2-1.4,0.2-2.1c0.1-1.8,0.3-3.6,0.4-5.3
			c0.1-0.9,0.2-1.7,0.5-2.5c0-0.3,0.2-0.5,0.3-0.8c0-0.1,0.1-0.2,0.1-0.3c-0.1,0-0.2-0.1-0.4-0.1c-0.4,0-0.9-0.1-1.3-0.1
			c-0.5,0-0.9-0.2-1.3-0.4c-0.1-0.1-0.1-0.1-0.2-0.2c0.1-0.1,0.2-0.2,0.2-0.1c0.2,0,0.4-0.1,0.5-0.1c1-0.1,2.5,0,3.8,0.1
			c1.1,0.1,2.2,0.3,3.3,0.4c0.3,0,0.6,0.1,1,0.1c0.1,0,0.2,0,0.3,0c0.4-0.2,0.8,0,1.1,0.1c0.3,0.1,0.3,0.4,0,0.6
			c-0.3,0.2-0.6,0.2-0.9,0.2c-0.5-0.1-1.1,0-1.6-0.1c-0.6,0-1.1-0.1-1.7-0.2c0.1,0.3,0.1,0.6,0.2,0.8c0.1,0.4,0.2,0.8,0.3,1.1
			c0.2,1.3,0.4,2.7,0.5,4c0.1,1.3,0.2,2.5,0.2,3.8c0,0.8,0,1.7,0,2.5c0,1.4-0.1,2.8-0.1,4.2c0,1.3-0.1,2.6-0.2,3.9
			c0,0.3-0.1,0.7-0.1,1c-0.1,0.2-0.2,0.5-0.3,0.7c-0.1,0.2-0.3,0.4-0.4,0.6c-0.1,0.2-0.3,0.3-0.5,0.1
			C281.1,549.3,280.8,549.5,280.4,549.4z M278.7,528.6c-0.2,1.2-0.2,2.6-0.3,3.8c-0.1,0.9-0.1,1.8-0.1,2.8c-0.1,1-0.2,2-0.2,3.1
			c-0.1,1.1-0.1,2.3-0.2,3.3c0,0.4-0.1,0.8-0.1,1.1c-0.1,0.8-0.1,1.6-0.2,2.4c0,0.4,0,0.8,0,1.2c0,0,0,0.1,0.1,0.1c0,0,0,0,0.1,0
			c0.4-6.2,0.8-12.5,1.2-18.7C278.8,528,278.7,528.4,278.7,528.6z M278.4,545.8c0.2-0.4,0.7-7.8,0.5-8.3
			C278.7,540.2,278.6,543,278.4,545.8z M279.3,528.8c0,0.1,0,0.2,0,0.3c0,0,0,0,0,0C279.3,529,279.3,528.9,279.3,528.8
			C279.3,528.8,279.3,528.8,279.3,528.8z M279.3,529.5c-0.1,2.5-0.2,5.1-0.3,7.6c0,0,0,0,0,0C279.1,534.6,279.2,532.1,279.3,529.5
			C279.3,529.5,279.3,529.5,279.3,529.5z M279.4,527.8c0,0,0,0.1,0,0.2c0,0,0,0,0.1,0C279.5,527.9,279.5,527.8,279.4,527.8
			C279.5,527.8,279.5,527.8,279.4,527.8z M279.6,526.3c0,0.1,0,0.2,0.1,0.3c0,0,0,0,0,0c0-0.1,0-0.2,0-0.3
			C279.7,526.3,279.6,526.3,279.6,526.3z M280.7,546.6c0-0.2,0-0.3,0.1-0.4c0-1.3,0.1-2.7,0.1-4c0.1-1.6,0.1-3.3,0.2-5
			c0-0.8,0.1-1.5-0.1-2.3c0,0.7,0,1.3,0,2c0,0.6,0,1.4-0.1,2c0,0.6-0.1,1.3-0.1,1.9c0,0.7,0,1.3-0.1,2c0,0.7-0.1,1.3-0.1,2
			c0,0.7-0.2,1.3-0.1,2C280.6,546.6,280.6,546.6,280.7,546.6z M281.1,534.2c0-0.3,0-0.5,0-0.8c0,0,0,0,0,0
			C281.1,533.7,281.1,533.9,281.1,534.2C281.1,534.2,281.1,534.2,281.1,534.2z M281.7,528.2c0.1,0.1,0.1,0.2,0.1,0.3c0,0,0,0,0,0
			c0-0.1,0-0.2,0-0.3C281.8,528.2,281.8,528.2,281.7,528.2z M282.1,546.4c0-0.7,0.1-1.5,0.1-2.3c0-1.4,0.1-2.8,0.1-4.1
			c0.1-1.8,0.1-3.6,0-5.4c-0.1-1-0.1-2-0.1-2.9c0-0.5-0.1-1-0.2-1.5c-0.1,0.3-0.1,0.5,0,0.8c0.1,0.8,0.1,1.7,0.1,2.6
			c0,0.6,0,1.2,0,1.8c0,0.7,0.2,1.4,0,2.1c-0.1,0.3,0,0.6,0,0.9c0,0.6-0.1,1.2-0.1,1.8c0,0,0,0,0,0c0,0.3,0,0.6,0,0.9
			c0,0.6,0,1.1-0.1,1.7c0,0.4,0,0.9,0,1.4c0,0.4,0,0.8-0.1,1.2c-0.1,0.6-0.1,1.3-0.2,2c0,0,0,0.1,0,0.2
			C281.9,547.1,282.1,546.8,282.1,546.4z"/>
		<path class="st1" d="M288.9,525.3c0-0.8,0.8-1.6,1.7-1.6c0.9,0,1.6,0.8,1.6,1.6s-0.7,1.6-1.6,1.6
			C289.6,526.9,288.9,526.1,288.9,525.3z M291.9,528.5c-0.1,8.6-0.2,13-0.3,21.6c-1.2,0-1.8,0-3.1,0c0.2-8.6,0.2-13,0.4-21.6
			C290.2,528.4,290.8,528.5,291.9,528.5z"/>
		<path class="st1" d="M297.6,526.3c0.1-0.1,0.2-0.2,0.3-0.2c0,0,0.2,0,0.2,0c0,0.3,0.2,0.2,0.4,0.2c0.1,0,0.2,0,0.3,0.1
			c0.3,0.1,0.6,0.4,1,0.3c0,0,0,0,0,0c0.1,0,0.2,0.1,0.3,0.2c0.1,0.4,0.6,0.4,0.6,0.8c0,0.8,0.2,1.7,0.3,2.5
			c0.1,1.2,0.2,2.4,0.3,3.6c0.1,2,0.2,4,0.2,6c0,0.9,0,1.9,0,2.8c0,0.4,0,0.7-0.1,1.1c-0.1,0.9,0,2,0,3c0,0.1,0,0.1,0,0.2
			c0.6,0.1,1.1,0.2,1.6,0.1c0.3,0,0.7,0,1.1,0.1c0.2,0.1,0.4,0.6,0.3,0.9c-0.1,0.2-0.3,0.1-0.5,0c0,0.1,0,0.3,0,0.4
			c-0.1,0-0.2,0.1-0.3,0.1c-0.7,0-1.4,0.1-2.1,0.1c-0.6,0-1.2-0.1-1.8-0.1c-0.1,0-0.2-0.1-0.4-0.1c-0.6,0.2-1.1-0.2-1.7-0.2
			c0,0-0.1-0.1-0.1-0.1c-0.6,0.1-0.7-0.4-0.9-0.7c-0.1-0.2-0.1-0.4-0.2-0.5c-0.1,0.4,0,0.7,0.1,1.1c-0.2-0.1-0.4-0.1-0.5-0.2
			c-0.6-0.5-1.1-1.1-1-2c0.1-1,0.2-2,0.3-3c0.1-0.9,0.1-1.7,0.2-2.6c0.1-1,0.1-2.1,0.3-3.1c0-0.2,0-0.4,0-0.7c0-0.8,0.1-1.6,0.2-2.5
			c0-0.4,0-0.9,0-1.3c0-0.8,0.1-1.6,0.2-2.3c0.1-0.8,0.2-1.8,0.3-2.7c0-0.4,0.2-0.8,0.3-1.2c0.1-0.3,0.4-0.5,0.7-0.5
			C297.6,526.1,297.6,526.2,297.6,526.3z M296.2,545.6c0.1,0.3-0.1,0.7,0.1,0.9C296.3,546.3,296.3,545.9,296.2,545.6z M296.5,543
			c-0.2,0.2-0.1,0.4-0.1,0.7c0,0.2-0.1,0.4,0,0.6c0-0.2,0-0.4,0-0.6C296.3,543.5,296.4,543.2,296.5,543z M297.4,526.9
			c0,0.1-0.1,0.2-0.1,0.2c-0.1,0.6-0.2,1.2-0.3,1.8c0,0.4,0,0.8,0,1.2c0,0.6-0.1,1.2-0.2,1.8c0,0.7,0,1.4,0,2.1
			c0,0.9-0.1,1.8-0.1,2.7c0,0.5,0,1.1,0,1.6c0,0.5-0.1,1.1-0.1,1.6c0,0.6-0.1,1.2-0.1,1.8c0,0.1,0.1,0.2,0.1,0.2
			c0.1-0.4,0.2-0.8,0.2-1.2c0.1-1.3,0.2-2.7,0.2-4.1c0.1-1.3,0.1-2.6,0.1-3.9c0-0.8,0.1-1.7,0.1-2.5c0.1-0.9,0.2-2,0.3-2.9
			c0-0.1,0-0.3,0.1-0.4C297.4,527,297.4,526.9,297.4,526.9z M297.4,547.5c-0.1-0.2-0.1-0.4-0.1-0.6
			C297.1,547.3,297.1,547.3,297.4,547.5z M297.5,534.7c0,2-0.1,3.9-0.2,5.8c0,0,0.1,0,0.1,0c0.1-1.9,0.1-3.9,0.1-5.8
			C297.6,534.7,297.6,534.7,297.5,534.7z M299.5,536.7c0,2.6-0.1,5.2-0.1,7.8c0.2-2.6,0.3-5.2,0.2-7.7
			C299.6,536.7,299.6,536.7,299.5,536.7z M300.7,534.6c-0.1,0.1-0.1,0.3-0.1,0.4c0,0.8,0.1,1.6,0.1,2.4c0,0.7-0.1,1.5-0.1,2.2
			c0,0.8,0,1.7,0,2.6c0,0.8,0,1.7-0.1,2.5c0,0.4,0,0.8,0,1.2c0,0.1,0,0.3,0.2,0.4c0.1-0.3,0.1-0.5,0.1-0.7c0.1-1.3,0.1-2.9,0.1-4.4
			c0-1,0-2,0-3c0-0.4,0-0.7,0-1.1c0-0.5,0-1.2-0.1-1.6C300.9,535.1,300.8,534.8,300.7,534.6C300.8,534.6,300.8,534.6,300.7,534.6z"
			/>
		<path class="st1" d="M306.9,525.3c0-0.8,0.7-1.6,1.6-1.6c0.9,0,1.6,0.7,1.6,1.6c0,0.8-0.7,1.7-1.6,1.7
			C307.6,526.9,306.9,526.1,306.9,525.3z M310,528.4c0.2,8.6,0.3,13,0.6,21.6c-1.2,0-1.8,0-3.1,0.1c-0.2-8.6-0.3-13-0.4-21.6
			C308.3,528.4,308.9,528.4,310,528.4z"/>
		<path class="st1" d="M315.7,525.9c0.1-0.1,0.2-0.2,0.3-0.2c0,0,0.2,0,0.2,0c0,0.3,0.2,0.2,0.4,0.2c0.1,0,0.2,0,0.3,0.1
			c0.3,0.1,0.6,0.4,1,0.2c0,0,0,0,0,0c0.1,0,0.2,0.1,0.3,0.1c0.1,0.4,0.6,0.4,0.6,0.8c0.1,0.8,0.3,1.7,0.3,2.5
			c0.1,1.2,0.3,2.4,0.4,3.6c0.2,2,0.4,4,0.5,5.9c0,0.9,0.1,1.9,0.1,2.8c0,0.4,0,0.7,0,1.1c0,0.9,0.1,2,0.1,3c0,0.1,0,0.1,0,0.2
			c0.6,0,1.1,0.1,1.6,0c0.3-0.1,0.7,0,1.1,0.1c0.2,0.1,0.5,0.6,0.3,0.8c-0.1,0.2-0.3,0.1-0.5,0c0,0.1,0,0.3,0,0.4
			c-0.1,0-0.2,0.1-0.3,0.1c-0.7,0.1-1.4,0.2-2.1,0.2c-0.6,0.1-1.2,0-1.8,0c-0.1,0-0.2-0.1-0.4-0.1c-0.6,0.2-1.1-0.1-1.7-0.1
			c0,0-0.1-0.1-0.1-0.1c-0.6,0.1-0.7-0.3-0.9-0.7c-0.1-0.2-0.2-0.3-0.2-0.5c-0.1,0.4,0.1,0.7,0.2,1.1c-0.2-0.1-0.4-0.1-0.5-0.2
			c-0.6-0.5-1.1-1.1-1-1.9c0.1-1,0.1-2,0.1-3c0-0.9,0-1.7,0.1-2.6c0.1-1,0-2.1,0.1-3.1c0-0.2,0-0.4,0-0.7c0-0.8,0-1.6,0.1-2.5
			c0-0.4,0-0.9,0-1.3c0-0.8,0.1-1.6,0.1-2.3c0-0.8,0.1-1.8,0.2-2.7c0-0.4,0.1-0.8,0.2-1.2c0.1-0.3,0.4-0.5,0.7-0.6
			C315.6,525.8,315.6,525.9,315.7,525.9z M315,545.4c0.1,0.3-0.1,0.7,0.2,0.9C315.1,546,315.1,545.6,315,545.4z M315.1,542.7
			c-0.2,0.2-0.1,0.4-0.1,0.7c0,0.2-0.1,0.4,0,0.6c0-0.2,0-0.4,0-0.6C315,543.2,315.1,542.9,315.1,542.7z M315.5,526.6
			c0,0.1-0.1,0.2-0.1,0.2c0,0.6-0.1,1.2-0.2,1.8c0,0.4,0,0.8,0,1.2c0,0.6-0.1,1.2-0.1,1.8c0,0.7,0,1.4,0,2.1c0,0.9,0,1.8,0,2.7
			c0,0.5,0,1.1,0,1.6c0,0.5,0,1.1,0,1.6c0,0.6,0,1.2-0.1,1.8c0,0.1,0.1,0.2,0.1,0.2c0.1-0.4,0.1-0.8,0.1-1.2c0-1.3,0.1-2.7,0.1-4.1
			c0-1.3,0-2.6,0-3.9c0-0.8,0-1.7,0-2.5c0-0.9,0.1-2,0.2-3c0-0.1,0-0.3,0.1-0.4C315.5,526.7,315.5,526.6,315.5,526.6z M316.2,547.2
			c-0.1-0.2-0.1-0.4-0.2-0.6C315.9,547,315.9,547,316.2,547.2z M315.9,534.3c0,2,0,3.9,0,5.8c0,0,0.1,0,0.1,0c0.1-1.9,0-3.9-0.1-5.8
			C315.9,534.3,315.9,534.3,315.9,534.3z M317.9,536.3c0.1,2.6,0.1,5.2,0.2,7.8c0.1-2.6,0.1-5.2-0.1-7.7
			C318,536.3,318,536.3,317.9,536.3z M319.1,534.1c-0.1,0.1-0.1,0.3-0.1,0.4c0,0.8,0.2,1.6,0.2,2.4c0,0.7,0,1.5,0,2.2
			c0,0.8,0,1.7,0.1,2.6c0,0.8,0,1.7,0,2.5c0,0.4,0,0.8,0,1.2c0,0.1,0,0.3,0.2,0.4c0.1-0.3,0.1-0.5,0.1-0.7c0.1-1.3,0-2.9,0-4.4
			c0-1-0.1-2-0.1-3c0-0.4,0-0.7,0-1.1c0-0.5-0.1-1.2-0.1-1.6C319.2,534.6,319.2,534.3,319.1,534.1
			C319.1,534.1,319.1,534.1,319.1,534.1z"/>
		<path class="st1" d="M329.6,535c0.2,0,0.4-0.1,0.5-0.1c0.8-0.1,1.7-0.2,2.5-0.3c0.2,0,0.3,0,0.6,0.1c0.5,0.1,0.7,0.5,0.6,0.7
			c0,0-0.4,0-0.3,0.3c0,0-0.2,0-0.3,0.1c-1,0.2-2,0.4-3,0.5c-0.1,0-0.2,0.1-0.4,0.1c0,0.3,0.1,0.7,0.1,1c0.1,0.7,0.2,1.5,0.3,2.3
			c0.1,0.8,0.1,1.7,0.3,2.5c0,0.2,0.1,0.3,0.1,0.6c0,0.3,0.1,0.6,0.1,0.9c0.1,0.5,0.2,1,0.2,1.5c0,0.4,0,0.9,0,1.3
			c0.7-0.1,1.5-0.2,2.2-0.3c0.8-0.1,1.8-0.2,2.2-0.1c0.2,0.1,0.3,0.4,0.4,0.6c0,0.1,0,0.1,0,0.1c-0.2,0.2-0.3,0.6-0.7,0.7
			c-0.3,0.1-0.6,0.2-0.9,0.2c-1,0.1-2.1,0.2-3.2,0.2c-0.4,0-0.8,0.1-1.2,0.1c-1,0.3-2,0.3-3.1,0.4c-0.5,0-0.6-0.1-0.6-0.5
			c0-0.1,0-0.2-0.2-0.3c-0.3-0.4-0.7-0.8-0.9-1.3c-0.2-0.5-0.3-1-0.4-1.5c0-0.5-0.1-0.9-0.2-1.3c0-0.2,0-0.4,0-0.6
			c0-0.4-0.1-0.9-0.1-1.4c0-0.5,0.1-1,0-1.5c-0.1-0.4,0-1,0-1.5c0-0.3-0.1-0.6-0.2-1c0-0.3,0-0.6,0-0.9c0-0.6-0.1-1.3-0.1-2
			c0-0.3,0-0.8-0.1-1.2c0-0.3,0-0.6,0-0.9c0-1.1,0-2.3,0-3.4c0.1-1,0.1-2,0.3-3c0.1-0.4,0.2-0.6,0.3-0.9c0,0,0,0,0,0
			c0.1-0.2,0.3-0.2,0.6-0.3c0.2,0,0.3-0.2,0.5,0c0.1,0,0.1,0.1,0.1,0.1c0.6-0.1,1.2,0.2,1.7,0c0.8-0.3,1.9-0.4,2.9-0.4
			c0.3,0,0.6,0.1,0.8,0.1c0.2,0,0.4,0,0.7,0.1c0.2,0,0.4,0.1,0.5,0.2c0.1,0.1,0.1,0.2,0.1,0.3c0,0.2-0.1,0.2-0.2,0.3
			c-0.4,0.3-0.8,0.3-1.3,0.4c-0.8,0.1-1.7,0.2-2.5,0.3c-0.1,0-0.1,0-0.2,0.1C328.8,529.3,329.2,532.1,329.6,535z M324.9,526.5
			c0,0.1,0,0.2,0,0.3c-0.1,0.5-0.1,1.1-0.1,1.6c0,0.7-0.1,1.5-0.1,2.3c0,0.5,0.1,1.1,0.1,1.7c0,0.9,0,1.8,0.1,2.6c0,0.4,0,1,0.1,1.4
			c0.1,0.6,0.1,1.3,0.1,1.9c0,0.2,0.1,0.3,0.1,0.5c0-0.1,0.1-0.1,0.1-0.2c0-0.7,0-1.3-0.1-2c0-0.6-0.1-1.1-0.1-1.7
			c-0.1-1,0-2.1-0.1-3.1c0-0.8,0-1.5,0-2.3c0-0.8,0.1-1.8,0.1-2.7c0-0.2,0-0.3,0-0.5C325,526.5,325,526.5,324.9,526.5z M325.2,539.7
			c0-0.3,0-0.5,0-0.7c0,0-0.1,0-0.1,0c-0.1,0.3,0,0.5,0,0.7c0,0.1,0.1,0.3,0.1,0.4c0,0,0,0,0,0c0-0.1-0.1-0.2-0.2-0.3
			C325.1,539.8,325.2,539.7,325.2,539.7z M325.8,546c0.1,0.3,0.2,0.6,0.3,0.9c0.2,0.3,0.2,0.6,0.6,0.8c-0.3-0.6-0.6-1.2-0.9-1.7
			C325.8,546,325.8,546,325.8,546z M326,537.6c-0.2-3.1-0.4-6.2-0.6-9.4c-0.1,3.2,0.1,6.3,0.4,9.4C325.9,537.6,326,537.6,326,537.6z
			 M326,538.7c0-0.2,0-0.4,0-0.6c0,0-0.1,0-0.1,0C325.9,538.3,325.9,538.5,326,538.7C326,538.7,326,538.7,326,538.7z M325.5,526.9
			c0,0.3-0.1,0.7,0,1c0,0,0,0,0,0C325.5,527.6,325.6,527.2,325.5,526.9C325.5,526.9,325.5,526.9,325.5,526.9z M327.4,532.2
			c0,0.1,0,0.2,0.1,0.3C327.5,532.4,327.5,532.3,327.4,532.2C327.4,532.2,327.4,532.2,327.4,532.2z M327.8,535.6
			c0.1-0.2-0.1-2-0.3-2.5C327.5,533.7,327.7,535.4,327.8,535.6z M328,536.8c0,0-0.1-0.1-0.1-0.2c-0.1,0.3,0.2,3.6,0.5,4.6
			C328.3,539.8,328.1,538.3,328,536.8z M327.9,527.4c0.1,0.7,0.2,1.5,0.3,2.3c0,0,0.1,0,0.1,0c-0.1-0.8-0.2-1.5-0.3-2.3
			C328,527.4,328,527.4,327.9,527.4z M328.2,530.1c0.2,1.7,0.4,3.5,0.6,5.2c0.3-0.1,0.3-0.1,0.3-0.3c-0.2-1.2-0.3-2.5-0.5-3.7
			c0-0.3-0.1-0.6-0.2-0.9c0-0.1,0-0.2-0.1-0.2C328.3,530.1,328.3,530.1,328.2,530.1z M328.9,536.7c0,0.2,0,0.3,0,0.4
			c0,0.4,0,0.7,0.1,1.1c0.1,0.5,0.2,1,0.2,1.5c0.1,0.6,0.2,1.1,0.3,1.7c0.1,0.7,0.2,1.5,0.2,2.1c0,0.4,0.1,0.8,0.2,1.3
			c0,0,0.1,0,0.1,0c-0.3-2.8-0.5-5.6-0.8-8.3C329.1,536.5,328.9,536.6,328.9,536.7z"/>
		<path class="st1" d="M343.8,533.8c1.1,0.3,1.8,1.1,2.3,2c0.6,1.1,1,2.2,1.4,3.4c0.4,1.2,0.8,2.4,0.9,3.7c0.1,0.7,0.1,1.4,0.2,2.1
			c0,0.1,0,0.2,0,0.2c-0.1,0.3,0.2,0.8-0.3,1.1c-0.4,0.2-0.9,0-1.4,0.1c-0.2,0-0.3-0.1-0.3-0.3c0-0.3,0-0.7-0.1-1.1
			c-0.1-1.4-0.3-3-0.7-4.5c-0.3-1-0.6-2-0.9-3c-0.2-0.9-0.6-1.7-1.1-2.5c-0.3-0.4-0.7-0.7-1.2-0.9c-0.1-0.1-0.2-0.1-0.4-0.1
			c0,0.2,0,0.3,0,0.4c0.1,0.8,0.2,1.7,0.2,2.5c0.1,0.6,0.1,1.2,0.2,1.9c0,0.4,0.1,0.7,0.1,1.1c0,0.5,0.1,1,0.1,1.5
			c0,0.5,0.1,1,0.1,1.5c0.1,0.6,0,1.2,0.1,1.7c0.1,0.7-0.3,1.2-0.8,1.7c-0.1,0.1-0.2,0.2-0.2,0.3c-0.3,0.4-0.5,0.5-0.9,0.2
			c-0.1,0.1-0.2,0.2-0.2,0.3c-0.5-0.1-1,0-1.6-0.1c0-0.1-0.1-0.2-0.3-0.4c-0.1,0.2,0,0.4,0,0.5c-0.2,0-0.3,0-0.4-0.2
			c-0.2-0.3-0.4-0.5-0.6-0.8c0,0,0,0-0.1,0c-0.1,0.4,0.4,0.9,0.3,1c-0.1,0.1-0.6-0.1-0.8-0.3c-0.2-0.2-0.4-0.5-0.6-0.8
			c-0.2-0.4-0.2-0.9-0.1-1.3c0-0.2,0-0.4,0-0.6c0-0.4-0.1-0.8-0.1-1.2c0-0.4,0-0.9,0-1.3c0-0.8-0.1-1.5-0.1-2.3c0-0.7-0.1-1.6,0-2.3
			c0-0.5,0-1.1,0-1.6c0-0.6-0.1-1.2-0.1-1.7c0-0.5,0-1.1,0-1.6c0-1-0.2-2-0.2-3c0-0.7,0-1.4,0-2.1c0-0.4,0-1,0.1-1.4
			c0-0.2,0.1-0.3,0.3-0.5c0.2-0.2,0.2-0.3,0.6,0c0.1-0.1,0.1-0.4,0.3-0.4c0.1,0,0.3,0.2,0.4,0.3c0.1,0,0.2-0.2,0.4-0.1
			c0.1,0,0.2-0.1,0.3-0.2c1.3-1,2.8-1.4,4.4-1.2c0.6,0.1,1.1,0.1,1.6,0.2c0.9,0.2,1.6,0.5,2.2,1.2c0.2,0.3,0.4,0.5,0.5,0.9
			c0.4,1.2,0.6,2.4,0.4,3.7c-0.1,0.6-0.5,1.2-0.9,1.6c-0.8,0.8-1.6,1.5-2.7,1.9c-0.3,0.2-0.6,0.4-0.9,0.6
			C343.3,533.7,343.6,533.7,343.8,533.8z M337.5,538.2c0,0,0-0.1-0.1-0.2c0,0,0,0-0.1,0C337.4,538.1,337.4,538.2,337.5,538.2
			C337.5,538.3,337.5,538.3,337.5,538.2z M336.9,525.7c-0.1,0.1-0.1,0.1-0.1,0.1c0,0.7,0,1.4,0,2.1c0,0.7,0.1,1.5,0.1,2.1
			c0,0.5,0,0.9,0,1.3c0,0.7,0.1,1.3,0.1,2c0,0.5,0,0.9,0.1,1.3c0.1,0.5,0,1.1,0.1,1.6c0,0,0,0.1,0,0.1c-0.1,0.3,0.1,0.6,0.1,0.9
			C337.4,533.5,337.1,529.6,336.9,525.7z M338.3,536.3c-0.2-3.4-0.5-6.7-0.7-10.1c0.1,3.2,0.4,6.4,0.5,9.5
			C338.1,535.9,338.2,536.2,338.3,536.3C338.3,536.4,338.3,536.4,338.3,536.3z M338.3,537.1c0-0.1,0-0.2,0-0.3c0,0-0.1,0.1-0.1,0.1
			S338.3,537.1,338.3,537.1C338.3,537.1,338.3,537.1,338.3,537.1z M340.6,538.3c0-0.3,0-0.6,0-0.9c-0.1-1-0.1-2-0.2-3
			c0-0.2,0-0.4-0.2-0.5C340.1,534.3,340.5,537.9,340.6,538.3z M339.6,528.4c0.2,1.7,0.3,3.5,0.5,5.3c0.1-0.1,0.2-0.1,0.2-0.1
			C340.1,531.8,339.9,530.1,339.6,528.4C339.6,528.3,339.6,528.3,339.6,528.4z M340.7,525.6c0.3,0.6,0.4,1.2,0.5,1.7
			c0.1,1,0.4,2.1,0.6,3.1c0.1,0.5,0.1,1,0.1,1.4c0,0.2,0.1,0.3,0.1,0.5c0.1-0.1,0.2-0.1,0.2-0.1c0.7-0.5,1.4-0.9,1.9-1.5
			c0.4-0.4,0.7-1,0.8-1.5c0.3-1.4,0-2.8-0.6-4.2c-0.2-0.4-0.4-0.6-0.8-0.6c-1.1-0.1-2.1,0-3.1,0.6c-0.2,0.1-0.2,0.1,0,0.4
			c0-0.2,0-0.3,0-0.4C340.6,525.2,340.7,525.5,340.7,525.6z M340.5,526.9c0.2,2,0.5,4,0.7,6c0.2,0,0.3-0.1,0.3-0.3
			c0-0.2,0-0.3,0-0.4c-0.2-1.7-0.4-3.4-0.8-5.1c0-0.1,0-0.2-0.1-0.3C340.6,526.9,340.6,526.9,340.5,526.9z M341.6,534.2
			c-0.1,0-0.2,0-0.3,0.1c0.2,1.9,0.4,3.7,0.6,5.6c0,0,0,0,0,0C342.1,539.4,341.8,534.6,341.6,534.2z M342,540.6
			C342,540.6,342.1,540.6,342,540.6c0-0.1,0-0.2,0-0.2C341.9,540.5,341.9,540.6,342,540.6C342,540.6,342,540.6,342,540.6z
			 M342.2,541.8c0-0.1,0-0.3-0.1-0.4c0,0,0,0-0.1,0c0,0.1,0.1,0.3,0.1,0.4C342.1,541.8,342.2,541.8,342.2,541.8z M345.2,526.5
			C345.2,526.5,345.2,526.5,345.2,526.5c0,0.1,0,0.2,0,0.3c0.1,0.5,0.2,0.9,0.2,1.3c0-0.4,0-0.8-0.1-1.1c0-0.1-0.1-0.1-0.1-0.2
			C345.2,526.7,345.2,526.6,345.2,526.5z M347.9,541.5c-0.2-1.1-0.5-2.1-0.9-3.1C347.3,539.5,347.5,540.5,347.9,541.5z M347.9,541.9
			c0,0.1,0,0.2,0,0.3c0,0,0,0,0,0C348,542.1,348,542,347.9,541.9C348,541.9,348,541.9,347.9,541.9z M346.7,528.1c0,0.2,0,0.3,0,0.4
			C346.7,528.4,346.7,528.2,346.7,528.1z M347.2,527c0,0.7,0,1.4,0,2C347.4,528.3,347.4,527.7,347.2,527z"/>
	</g>
</g>
</svg>
